<svg width="17" height="18" viewBox="0 0 17 18" fill="none" xmlns="http://www.w3.org/2000/svg">
<path d="M9.5625 15.375C10.8234 15.375 12.0559 15.0011 13.1043 14.3006C14.1526 13.6001 14.9697 12.6045 15.4522 11.4396C15.9347 10.2747 16.061 8.99293 15.815 7.7563C15.569 6.51967 14.9619 5.38376 14.0703 4.4922C13.1787 3.60064 12.0428 2.99348 10.8062 2.7475C9.56957 2.50152 8.28777 2.62776 7.12289 3.11027C5.95801 3.59278 4.96238 4.40988 4.26188 5.45824C3.56139 6.50661 3.1875 7.73915 3.1875 9V12.2938L1.275 10.3813L0.53125 11.125L3.71875 14.3125L6.90625 11.125L6.1625 10.3813L4.25 12.2938V9C4.25 7.94929 4.56157 6.92217 5.14532 6.04854C5.72906 5.1749 6.55876 4.49398 7.52949 4.09189C8.50023 3.6898 9.56839 3.5846 10.5989 3.78958C11.6294 3.99457 12.576 4.50053 13.319 5.2435C14.062 5.98646 14.5679 6.93306 14.7729 7.96359C14.9779 8.99411 14.8727 10.0623 14.4706 11.033C14.0685 12.0037 13.3876 12.8334 12.514 13.4172C11.6403 14.0009 10.6132 14.3125 9.5625 14.3125V15.375Z" fill="black"/>
</svg>
