<svg width="20" height="20" viewBox="0 0 20 20" fill="none" xmlns="http://www.w3.org/2000/svg">
<ellipse cx="10.1394" cy="10.1399" rx="8.96359" ry="8.96358" stroke="#696969" stroke-width="1.43553" stroke-linecap="round" stroke-linejoin="round"/>
<path d="M7.05881 8.24379C7.0574 8.27715 7.06282 8.31044 7.07475 8.34163C7.08668 8.37282 7.10487 8.40123 7.12819 8.42513C7.1515 8.44903 7.17946 8.46791 7.21035 8.4806C7.24123 8.49329 7.27438 8.49954 7.30777 8.49894H8.16C8.30256 8.49894 8.41619 8.38221 8.43478 8.24069C8.52776 7.56303 8.99261 7.06925 9.82109 7.06925C10.5297 7.06925 11.1785 7.42358 11.1785 8.27581C11.1785 8.93177 10.7921 9.23341 10.1816 9.69207C9.48639 10.1972 8.9358 10.7871 8.97505 11.7447L8.97815 11.9688C8.97923 12.0366 9.00692 12.1012 9.05524 12.1488C9.10355 12.1963 9.16862 12.223 9.2364 12.2229H10.0742C10.1427 12.2229 10.2084 12.1957 10.2568 12.1473C10.3052 12.0989 10.3324 12.0332 10.3324 11.9647V11.8562C10.3324 11.1145 10.6144 10.8986 11.3758 10.3212C12.0049 9.84289 12.6608 9.31192 12.6608 8.1973C12.6608 6.63642 11.3427 5.88232 9.8996 5.88232C8.59077 5.88232 7.15695 6.4918 7.05881 8.24379ZM8.66721 14.197C8.66721 14.7476 9.10624 15.1546 9.71055 15.1546C10.3397 15.1546 10.7725 14.7476 10.7725 14.197C10.7725 13.6268 10.3386 13.226 9.70952 13.226C9.10624 13.226 8.66721 13.6268 8.66721 14.197Z" fill="#696969"/>
</svg>
