<svg width="2578" height="597" viewBox="0 0 2578 597" fill="none" xmlns="http://www.w3.org/2000/svg">
<path d="M2121 596.298C2026.35 596.298 1932.71 596.305 1839.06 596.29C1826.91 596.288 1818.87 591.401 1815.79 581.478C1814.64 577.769 1814.71 573.593 1814.7 569.63C1814.65 469.651 1814.66 369.673 1814.66 269.695C1814.66 188.379 1814.7 107.063 1814.59 25.7476C1814.58 19.5659 1815.25 13.8125 1819.04 8.76533C1822.79 3.76173 1827.48 0.33729 1834.05 0.295237C1836.05 0.282419 1838.05 0.28657 1840.05 0.28657C2016.67 0.286265 2193.3 0.0122169 2369.93 0.504282C2407.85 0.609934 2445.36 5.50489 2480.82 20.6136C2518.55 36.6865 2541.79 65.0795 2550.3 104.716C2558.2 141.487 2557.65 178.602 2549.13 215.355C2541.43 248.561 2521.6 271.52 2489.76 283.996C2485.02 285.853 2479.23 286.365 2476.84 293.888C2480.59 295.21 2484 296.812 2487.59 297.604C2502.23 300.837 2516.49 304.978 2529.64 312.499C2552.27 325.439 2565.01 345.793 2570.44 370.276C2579.6 411.62 2579.75 453.249 2569.22 494.511C2561 526.726 2543.74 552.814 2515.03 570.439C2495.22 582.605 2473.38 589.221 2450.49 592.655C2431.75 595.469 2412.91 596.412 2393.94 596.376C2303.29 596.202 2212.65 596.298 2121 596.298ZM2208 358.949C2145.81 358.949 2083.62 358.949 2021.15 358.949C2021.15 393.802 2021.15 427.612 2021.15 462.298C2025.21 462.298 2028.79 462.298 2032.38 462.298C2115.66 462.298 2198.94 462.354 2282.22 462.234C2293.82 462.218 2305.48 461.937 2317 460.708C2331.79 459.13 2345.84 454.679 2355.71 442.65C2378.88 414.435 2364.79 371.323 2329.42 362.851C2318.89 360.329 2307.8 359.306 2296.94 359.119C2267.97 358.62 2238.98 358.949 2208 358.949ZM2216 126.954C2151.13 126.954 2086.26 126.954 2021.24 126.954C2021.24 158.83 2021.24 189.623 2021.24 220.664C2023.08 220.785 2024.36 220.942 2025.65 220.942C2115.29 220.954 2204.93 221.08 2294.56 220.77C2304.04 220.738 2313.7 218.899 2322.93 216.541C2335 213.458 2342.91 204.985 2346.79 193.227C2350.63 181.608 2350.52 169.669 2347.71 157.843C2344.45 144.125 2336.1 134.59 2322.38 131.041C2313.8 128.822 2304.81 127.305 2295.97 127.134C2269.99 126.629 2243.99 126.954 2216 126.954Z" fill="#010101"/>
<path d="M1646.35 75.3784C1661 98.5282 1668.07 123.009 1666.68 149.786C1666.24 158.242 1663.06 162.499 1654.76 164.685C1651.28 165.603 1647.61 166.228 1644.02 166.233C1584.36 166.326 1524.7 166.303 1465.04 166.283C1462.77 166.282 1460.49 166.045 1457.94 165.902C1457.42 162.558 1457.26 159.575 1456.48 156.766C1452.81 143.676 1444.96 134.165 1431.49 130.828C1423.19 128.772 1414.53 127.163 1406.02 127.126C1337.69 126.833 1269.36 126.853 1201.03 127.107C1192.84 127.137 1184.54 128.6 1176.5 130.354C1162.17 133.48 1152.54 142.671 1150.06 156.96C1148.39 166.579 1148.47 176.985 1150.2 186.604C1153.01 202.278 1164.2 211.139 1179.33 214.426C1187.05 216.101 1195.11 216.834 1203.02 216.845C1307.68 216.999 1412.34 216.271 1516.99 217.234C1569.11 217.713 1615.39 235.641 1652.25 273.583C1677.25 299.317 1691.26 330.135 1690.74 366.832C1690.36 394.158 1690.62 421.493 1690.68 448.824C1690.77 483.546 1677.41 512.923 1654.15 537.838C1622.39 571.86 1582.31 589.49 1536.54 594.872C1528 595.876 1519.34 596.236 1510.73 596.242C1384.08 596.326 1257.42 596.868 1130.77 595.985C1087.59 595.684 1045.54 586.98 1007.67 564.586C957.985 535.199 931.964 491.499 930.716 433.535C930.442 420.825 934.477 416.162 946.802 413.594C949.047 413.127 951.395 412.975 953.695 412.973C1012.36 412.941 1071.02 412.948 1129.68 412.948C1131.64 412.948 1133.59 412.948 1135.05 412.948C1135.83 414.24 1136.4 414.757 1136.44 415.315C1138.76 445.161 1158.98 456.659 1182.73 460.247C1191.55 461.58 1200.56 462.179 1209.48 462.199C1278.48 462.354 1347.47 462.393 1416.47 462.188C1429.39 462.15 1442.31 460.816 1454.58 456.105C1478.78 446.818 1487.29 426.977 1484.05 403.546C1480.45 377.553 1466.23 367.825 1438.79 364.552C1426.64 363.103 1414.27 363.041 1402 363.026C1310.67 362.909 1219.34 363.329 1128.02 362.787C1089.82 362.561 1052.71 355.276 1018.25 337.984C972.451 315.003 944.228 278.479 935.662 227.586C934.127 218.468 933.613 209.11 933.43 199.846C933.087 182.521 933.254 165.184 933.347 147.853C933.56 108.144 948.397 74.6369 977.438 47.8305C1004.28 23.0521 1036.45 8.52876 1072.35 2.59877C1082.77 0.877761 1093.5 0.389297 1104.09 0.377945C1237.08 0.23555 1370.07 -0.0853734 1503.05 0.492447C1547.45 0.685379 1587.09 15.9797 1620.34 45.7639C1629.88 54.3107 1637.45 65.0489 1646.35 75.3784Z" fill="#010101"/>
<path d="M160.538 300.106C181.447 261.461 202.037 223.487 222.591 185.493C245.677 142.819 268.713 100.117 291.81 57.4484C298.928 44.2986 306.438 31.3539 313.286 18.0669C319.746 5.53296 329.079 -0.0498678 343.644 0.0619482C409.966 0.571165 476.295 0.537779 542.618 0.082395C556.691 -0.014223 565.722 5.31109 572.317 17.4313C599.318 67.0494 626.658 116.483 653.915 165.961C688.065 227.955 722.303 289.9 756.417 351.913C791.973 416.549 827.423 481.243 862.929 545.906C867.725 554.641 872.644 563.309 877.366 572.083C878.77 574.69 880.101 577.458 880.765 580.315C882.556 588.031 879.386 593.217 871.661 595.371C869.163 596.068 866.455 596.26 863.843 596.263C806.516 596.31 749.19 596.302 691.863 596.287C689.883 596.286 687.903 596.108 685.49 595.992C666.569 560.975 647.629 525.92 628.843 491.15C505.492 491.15 382.855 491.15 259.282 491.15C241.643 525.85 223.884 560.788 205.833 596.299C202.69 596.299 199.39 596.299 196.091 596.299C140.097 596.299 84.1039 596.299 28.1104 596.299C26.444 596.299 24.7714 596.391 23.112 596.282C11.4891 595.518 5.8945 586.553 11.1546 576.042C18.2912 561.783 26.0396 547.826 33.6576 533.811C53.9718 496.439 74.4018 459.13 94.701 421.749C116.586 381.449 138.374 341.097 160.538 300.106ZM348.791 379.979C352.296 378.081 355.812 376.201 359.305 374.281C436.749 331.718 514.193 289.153 591.632 246.581C611.721 235.537 631.794 224.463 651.874 213.404C655.007 211.679 658.763 210.492 658.473 204.338C654.476 203.883 650.388 203.016 646.298 203.011C573.986 202.929 501.674 202.952 429.362 202.952C404.036 202.952 378.709 202.845 353.384 202.99C336.953 203.084 327.448 212.416 326.677 228.751C326.583 230.746 326.658 232.749 326.658 234.748C326.658 276.736 326.656 318.724 326.663 360.711C326.663 363.376 326.55 366.058 326.798 368.703C328.012 381.701 334.765 385.598 348.791 379.979Z" fill="#010101"/>
<path d="M0.660956 300.614C0.660956 210.015 0.660956 120.413 0.661078 30.8112C0.661078 28.4795 0.778082 26.1413 0.644232 23.8174C-0.12069 10.5363 12.2386 -0.178115 24.4892 0.00224408C71.778 0.697984 119.083 0.246812 166.382 0.306932C181.288 0.325914 186.759 9.51342 179.66 22.6814C172.096 36.7118 164.229 50.578 156.552 64.5478C127.924 116.642 99.3042 168.742 70.7116 220.856C51.3825 256.086 32.1611 291.375 12.7052 326.534C10.9305 329.742 7.79551 332.196 3.874 336.588C-1.68533 323.735 1.72794 312.428 0.660956 300.614Z" fill="#010101"/>
</svg>
