<svg width="51" height="57" viewBox="0 0 51 57" fill="none" xmlns="http://www.w3.org/2000/svg">
<path d="M46.8301 20.93C46.6501 21.12 46.4501 21.33 46.2501 21.54C45.8801 21.93 45.4001 22.03 44.8801 22.14C44.2701 22.27 43.5701 22.42 43.2501 23.14C42.9601 23.81 43.1301 24.44 43.2501 24.82C43.2701 24.88 43.2801 24.94 43.2901 24.98C43.6501 26.54 42.2801 28.59 40.8501 29.84C39.6301 30.9 38.6201 31.23 38.1701 31.09C38.1201 31.01 38.0601 30.79 38.0201 30.64C37.9001 30.18 37.7501 29.58 37.2201 29.22C37.4801 29.02 37.7201 28.78 37.9201 28.51C38.3701 27.9 38.4301 27.25 38.1001 26.6C37.8501 26.1 37.3801 25.65 36.9401 25.22C36.7501 25.03 36.5501 24.84 36.3701 24.64C35.6801 23.88 35.0401 23.55 34.5701 23.31C34.1201 23.08 33.9001 22.95 33.7501 22.66C33.5901 22.34 34.2101 21.71 34.8601 21.05C35.8301 20.07 37.0401 18.85 37.3501 17.14C37.7801 14.83 36.3701 12.95 34.7401 10.76C33.0901 8.54995 31.2201 6.03995 30.8501 2.50995C30.8301 2.30995 30.8201 2.10995 30.8201 1.92995C32.3101 4.34995 33.5201 5.03995 34.3501 5.50995C35.1001 5.93995 35.4401 6.12995 35.6701 7.38995C35.7701 7.92995 35.8001 8.37995 35.8301 8.79995C35.9101 9.81995 35.9701 10.71 36.9401 12.07C37.3501 12.65 38.39 13.95 39.18 13.45C39.69 13.13 39.5801 12.44 39.4201 11.49C39.2701 10.58 39.0501 9.32995 39.5301 8.82995C39.6601 8.68995 39.8701 8.60995 39.9601 8.62995C39.9801 8.65995 40.0801 8.79995 40.1201 9.34995C40.1501 9.82995 40.1201 10.45 40.0901 11.11C40.0001 13.06 39.8901 15.26 41.1401 16.25C42.0001 16.92 43.0101 17.56 44.5401 17.56C45.66 17.56 47.07 17.22 48.9001 16.3C48.9201 16.36 48.9401 16.43 48.9601 16.47C49.0501 16.74 49.1301 16.99 49.2501 17.18C49.7201 17.88 48.9001 18.78 46.8601 20.92L46.8301 20.93ZM13.5001 53.74C13.7101 53.71 13.9001 53.68 13.9801 53.67C14.2701 53.64 14.5701 53.7 14.8201 53.82C15.3101 54.05 15.7301 54.58 15.6601 54.86C15.5801 55.19 14.7201 55.48 13.9801 55.33C13.2901 55.18 12.6701 54.6 12.5401 53.96C12.5401 53.93 12.5401 53.91 12.5301 53.88C12.9101 53.83 13.2401 53.78 13.5001 53.73V53.74ZM50.1001 16.61C50.0601 16.54 49.98 16.31 49.93 16.16C49.78 15.7 49.6501 15.3 49.2901 15.15C49.1201 15.08 48.9201 15.09 48.7601 15.18C44.3901 17.5 42.8701 16.3 41.7701 15.43C40.9501 14.78 41.0501 12.78 41.1201 11.17C41.2101 9.38995 41.2701 7.98995 40.3001 7.64995C39.7301 7.44995 39.1101 7.74995 38.7601 8.10995C37.9201 8.98995 38.1801 10.54 38.3701 11.67C38.4001 11.85 38.4301 12.05 38.4601 12.24C38.2701 12.06 38.0401 11.81 37.7901 11.46C36.9901 10.34 36.9401 9.68995 36.8701 8.71995C36.8401 8.28995 36.8001 7.79995 36.6901 7.19995C36.3801 5.45995 35.6701 5.05995 34.8601 4.58995C33.9701 4.07995 32.7501 3.38995 31.1101 0.329954C30.9401 0.0199541 30.6401 -0.0600459 30.4001 0.0199541C30.0801 0.119954 29.9001 0.439954 29.8101 1.08995C29.7401 1.54995 29.7401 2.08995 29.7901 2.60995C30.1901 6.42995 32.1601 9.05995 33.8901 11.38C35.4401 13.45 36.6501 15.08 36.3101 16.93C36.0501 18.32 35.0201 19.37 34.1101 20.29C33.1801 21.23 32.3101 22.12 32.8101 23.12C33.1201 23.73 33.5801 23.97 34.0801 24.23C34.5201 24.46 35.0201 24.72 35.5901 25.34C35.7901 25.55 36.0001 25.76 36.2001 25.96C37.2301 26.96 37.4701 27.34 37.0701 27.88C36.5701 28.55 35.71 28.96 35.2901 28.72C34.7201 28.4 34.0101 28.23 33.4401 28.08C33.2301 28.03 33.0301 27.98 32.8901 27.93C32.0701 27.67 31.5901 28.47 31.2701 29C31.2001 29.11 31.1101 29.27 31.0201 29.39C30.9801 29.16 30.9501 28.81 30.9401 28.57C30.8801 27.68 30.8201 26.68 30.0701 26.34C29.3901 26.03 28.4801 26.47 27.3701 27.64C25.5001 29.62 24.9001 31.52 24.3301 33.35C23.9501 34.55 23.6001 35.68 22.9001 36.8C21.7101 38.71 20.3301 39.27 18.7201 39.92C16.9101 40.65 14.8701 41.49 12.7301 44.32C11.7501 45.62 10.9201 47.12 10.4601 48.45C9.79007 50.35 10.1201 51.15 10.5001 51.48C10.8601 51.79 11.3401 51.76 11.6901 51.74C11.8001 51.74 11.9601 51.72 12.0501 51.74C12.0301 51.85 11.9401 52.06 11.8701 52.2C11.7801 52.41 11.6701 52.65 11.5901 52.92C8.98006 53.19 5.08006 53.11 4.44006 49.95C4.44006 49.95 4.44006 49.94 4.44006 49.93C6.28006 49.34 7.38006 46.94 6.91006 46.28C6.76006 46.06 6.47006 46.09 5.36006 46.23L5.14006 44.22C5.11006 43.99 4.90006 43.82 4.67006 43.84L4.37005 43.87C4.14005 43.9 3.97006 44.11 3.99006 44.34L4.22006 46.37C3.98006 46.4 3.72005 46.43 3.43005 46.46C3.20005 46.49 2.98006 46.51 2.78006 46.53L2.55006 44.5C2.53006 44.27 2.31006 44.1 2.08006 44.12L1.78006 44.16C1.55006 44.18 1.38005 44.4 1.40005 44.63L1.62005 46.65C0.500054 46.76 0.220054 46.8 0.120054 47.04C-0.189946 47.8 1.44006 49.93 3.39006 50.06C3.39006 50.09 3.39005 50.12 3.40005 50.16C3.70005 51.65 4.77006 53.52 8.17006 53.97C9.31006 54.12 10.4801 54.08 11.4801 53.99C11.4801 54.04 11.5001 54.1 11.5101 54.16C11.7201 55.21 12.6501 56.11 13.7601 56.34C13.9701 56.38 14.1801 56.41 14.4101 56.41C14.7701 56.41 15.1401 56.35 15.4601 56.24C16.1201 56.02 16.5601 55.61 16.6901 55.1C16.9301 54.14 16.0101 53.21 15.2901 52.86C14.8701 52.65 14.3901 52.57 13.9001 52.61C13.7801 52.62 13.6101 52.65 13.3401 52.69C13.1801 52.72 12.9801 52.74 12.7701 52.78C12.7901 52.74 12.8101 52.69 12.8301 52.64C13.0401 52.18 13.2901 51.62 12.9201 51.11C12.5701 50.64 12.0001 50.67 11.6201 50.7C11.4801 50.7 11.2601 50.72 11.1901 50.7C11.1301 50.62 11.0001 50.08 11.4801 48.74C11.9101 47.53 12.6801 46.16 13.5701 44.97C15.5301 42.37 17.3601 41.63 19.1201 40.91C20.8201 40.22 22.4301 39.56 23.7901 37.37C24.5601 36.14 24.9501 34.89 25.3301 33.68C25.8901 31.88 26.4301 30.18 28.1301 28.38C29.0801 27.37 29.5701 27.28 29.6401 27.31C29.6401 27.31 29.7101 27.36 29.7801 27.63C29.8501 27.91 29.8701 28.28 29.8901 28.64C29.9401 29.47 30.0001 30.33 30.6801 30.55C31.4301 30.79 31.8801 30.04 32.1701 29.55C32.2801 29.37 32.4801 29.03 32.6001 28.95C32.7701 29 32.9701 29.05 33.1901 29.1C33.5601 29.19 33.9901 29.3 34.3601 29.44C34.3601 29.46 34.3401 29.47 34.3301 29.48C33.9401 30.04 33.6801 31.43 33.7401 32.13C33.8301 33.13 32.7601 34.02 31.6301 34.96C30.3101 36.06 28.9501 37.19 29.0101 38.81C29.0301 39.39 29.2301 39.77 29.3801 40.05C29.5301 40.34 29.5501 40.39 29.5001 40.52C29.3701 40.88 28.8301 40.98 27.9601 41.11C27.0001 41.25 25.8101 41.43 24.8401 42.28C23.8001 43.2 23.7201 44.29 23.6501 45.43C23.5801 46.48 23.5001 47.67 22.6901 49.13C22.6601 49.19 22.6201 49.26 22.5701 49.35C22.0701 50.3 20.7501 52.81 18.5901 52.61C17.9701 52.56 16.9201 52.46 15.7001 50.75C15.6101 50.63 15.5401 50.52 15.4601 50.43C15.2701 50.21 14.9401 50.18 14.7201 50.36C14.5001 50.55 14.4701 50.88 14.6501 51.1C14.7001 51.16 14.7701 51.25 14.8401 51.36C15.3301 52.04 16.3401 53.47 18.4901 53.65C18.6001 53.66 18.7101 53.66 18.8201 53.66C21.4701 53.66 22.9801 50.79 23.5001 49.82C23.5401 49.74 23.5801 49.67 23.6001 49.62C24.5201 47.96 24.6101 46.59 24.6901 45.49C24.7601 44.4 24.8101 43.69 25.5301 43.06C26.2601 42.42 27.2401 42.27 28.1101 42.14C29.1101 41.99 30.1401 41.84 30.4901 40.87C30.7001 40.29 30.4901 39.88 30.3101 39.55C30.1901 39.32 30.0701 39.1 30.0601 38.76C30.0201 37.65 31.1301 36.73 32.3001 35.75C33.5901 34.68 34.93 33.57 34.7901 32.02C34.7401 31.46 34.9901 30.36 35.2001 30.06C35.4501 29.7 36.0601 29.8 36.5501 30.01C36.8001 30.12 36.8901 30.4 37.0001 30.86C37.1101 31.29 37.2501 31.83 37.7601 32.02C38.6901 32.37 40.1101 31.84 41.5401 30.59C43.25 29.1 44.7801 26.69 44.3201 24.7C44.3101 24.63 44.2801 24.56 44.2701 24.49C44.1801 24.19 44.0901 23.84 44.2301 23.52C44.3201 23.32 44.5701 23.24 45.1101 23.13C45.7001 23 46.4301 22.85 47.0201 22.23C47.2201 22.02 47.4101 21.82 47.6001 21.62C48.7001 20.47 49.4901 19.65 49.9501 18.92C50.3101 18.35 50.7201 17.5 50.1101 16.57L50.1001 16.61Z" fill="#231F20"/>
</svg>
