<svg width="241" height="57" viewBox="0 0 241 57" fill="none" xmlns="http://www.w3.org/2000/svg">
<g>
<path d="M236.83 20.93C236.65 21.12 236.45 21.33 236.25 21.54C235.88 21.93 235.4 22.03 234.88 22.14C234.27 22.27 233.57 22.42 233.25 23.14C232.96 23.81 233.13 24.44 233.25 24.82C233.27 24.88 233.28 24.94 233.29 24.98C233.65 26.54 232.28 28.59 230.85 29.84C229.63 30.9 228.62 31.23 228.17 31.09C228.12 31.01 228.06 30.79 228.02 30.64C227.9 30.18 227.75 29.58 227.22 29.22C227.48 29.02 227.72 28.78 227.92 28.51C228.37 27.9 228.43 27.25 228.1 26.6C227.85 26.1 227.38 25.65 226.94 25.22C226.75 25.03 226.55 24.84 226.37 24.64C225.68 23.88 225.04 23.55 224.57 23.31C224.12 23.08 223.9 22.95 223.75 22.66C223.59 22.34 224.21 21.71 224.86 21.05C225.83 20.07 227.04 18.85 227.35 17.14C227.78 14.83 226.37 12.95 224.74 10.76C223.09 8.54995 221.22 6.03995 220.85 2.50995C220.83 2.30995 220.82 2.10995 220.82 1.92995C222.31 4.34995 223.52 5.03995 224.35 5.50995C225.1 5.93995 225.44 6.12995 225.67 7.38995C225.77 7.92995 225.8 8.37995 225.83 8.79995C225.91 9.81995 225.97 10.71 226.94 12.07C227.35 12.65 228.39 13.95 229.18 13.45C229.69 13.13 229.58 12.44 229.42 11.49C229.27 10.58 229.05 9.32995 229.53 8.82995C229.66 8.68995 229.87 8.60995 229.96 8.62995C229.98 8.65995 230.08 8.79995 230.12 9.34995C230.15 9.82995 230.12 10.45 230.09 11.11C230 13.06 229.89 15.26 231.14 16.25C232 16.92 233.01 17.56 234.54 17.56C235.66 17.56 237.07 17.22 238.9 16.3C238.92 16.36 238.94 16.43 238.96 16.47C239.05 16.74 239.13 16.99 239.25 17.18C239.72 17.88 238.9 18.78 236.86 20.92L236.83 20.93ZM203.5 53.74C203.71 53.71 203.9 53.68 203.98 53.67C204.27 53.64 204.57 53.7 204.82 53.82C205.31 54.05 205.73 54.58 205.66 54.86C205.58 55.19 204.72 55.48 203.98 55.33C203.29 55.18 202.67 54.6 202.54 53.96C202.54 53.93 202.54 53.91 202.53 53.88C202.91 53.83 203.24 53.78 203.5 53.73V53.74ZM240.1 16.61C240.06 16.54 239.98 16.31 239.93 16.16C239.78 15.7 239.65 15.3 239.29 15.15C239.12 15.08 238.92 15.09 238.76 15.18C234.39 17.5 232.87 16.3 231.77 15.43C230.95 14.78 231.05 12.78 231.12 11.17C231.21 9.38995 231.27 7.98995 230.3 7.64995C229.73 7.44995 229.11 7.74995 228.76 8.10995C227.92 8.98995 228.18 10.54 228.37 11.67C228.4 11.85 228.43 12.05 228.46 12.24C228.27 12.06 228.04 11.81 227.79 11.46C226.99 10.34 226.94 9.68995 226.87 8.71995C226.84 8.28995 226.8 7.79995 226.69 7.19995C226.38 5.45995 225.67 5.05995 224.86 4.58995C223.97 4.07995 222.75 3.38995 221.11 0.329954C220.94 0.0199541 220.64 -0.0600459 220.4 0.0199541C220.08 0.119954 219.9 0.439954 219.81 1.08995C219.74 1.54995 219.74 2.08995 219.79 2.60995C220.19 6.42995 222.16 9.05995 223.89 11.38C225.44 13.45 226.65 15.08 226.31 16.93C226.05 18.32 225.02 19.37 224.11 20.29C223.18 21.23 222.31 22.12 222.81 23.12C223.12 23.73 223.58 23.97 224.08 24.23C224.52 24.46 225.02 24.72 225.59 25.34C225.79 25.55 226 25.76 226.2 25.96C227.23 26.96 227.47 27.34 227.07 27.88C226.57 28.55 225.71 28.96 225.29 28.72C224.72 28.4 224.01 28.23 223.44 28.08C223.23 28.03 223.03 27.98 222.89 27.93C222.07 27.67 221.59 28.47 221.27 29C221.2 29.11 221.11 29.27 221.02 29.39C220.98 29.16 220.95 28.81 220.94 28.57C220.88 27.68 220.82 26.68 220.07 26.34C219.39 26.03 218.48 26.47 217.37 27.64C215.5 29.62 214.9 31.52 214.33 33.35C213.95 34.55 213.6 35.68 212.9 36.8C211.71 38.71 210.33 39.27 208.72 39.92C206.91 40.65 204.87 41.49 202.73 44.32C201.75 45.62 200.92 47.12 200.46 48.45C199.79 50.35 200.12 51.15 200.5 51.48C200.86 51.79 201.34 51.76 201.69 51.74C201.8 51.74 201.96 51.72 202.05 51.74C202.03 51.85 201.94 52.06 201.87 52.2C201.78 52.41 201.67 52.65 201.59 52.92C198.98 53.19 195.08 53.11 194.44 49.95C194.44 49.95 194.44 49.94 194.44 49.93C196.28 49.34 197.38 46.94 196.91 46.28C196.76 46.06 196.47 46.09 195.36 46.23L195.14 44.22C195.11 43.99 194.9 43.82 194.67 43.84L194.37 43.87C194.14 43.9 193.97 44.11 193.99 44.34L194.22 46.37C193.98 46.4 193.72 46.43 193.43 46.46C193.2 46.49 192.98 46.51 192.78 46.53L192.55 44.5C192.53 44.27 192.31 44.1 192.08 44.12L191.78 44.16C191.55 44.18 191.38 44.4 191.4 44.63L191.62 46.65C190.5 46.76 190.22 46.8 190.12 47.04C189.81 47.8 191.44 49.93 193.39 50.06C193.39 50.09 193.39 50.12 193.4 50.16C193.7 51.65 194.77 53.52 198.17 53.97C199.31 54.12 200.48 54.08 201.48 53.99C201.48 54.04 201.5 54.1 201.51 54.16C201.72 55.21 202.65 56.11 203.76 56.34C203.97 56.38 204.18 56.41 204.41 56.41C204.77 56.41 205.14 56.35 205.46 56.24C206.12 56.02 206.56 55.61 206.69 55.1C206.93 54.14 206.01 53.21 205.29 52.86C204.87 52.65 204.39 52.57 203.9 52.61C203.78 52.62 203.61 52.65 203.34 52.69C203.18 52.72 202.98 52.74 202.77 52.78C202.79 52.74 202.81 52.69 202.83 52.64C203.04 52.18 203.29 51.62 202.92 51.11C202.57 50.64 202 50.67 201.62 50.7C201.48 50.7 201.26 50.72 201.19 50.7C201.13 50.62 201 50.08 201.48 48.74C201.91 47.53 202.68 46.16 203.57 44.97C205.53 42.37 207.36 41.63 209.12 40.91C210.82 40.22 212.43 39.56 213.79 37.37C214.56 36.14 214.95 34.89 215.33 33.68C215.89 31.88 216.43 30.18 218.13 28.38C219.08 27.37 219.57 27.28 219.64 27.31C219.64 27.31 219.71 27.36 219.78 27.63C219.85 27.91 219.87 28.28 219.89 28.64C219.94 29.47 220 30.33 220.68 30.55C221.43 30.79 221.88 30.04 222.17 29.55C222.28 29.37 222.48 29.03 222.6 28.95C222.77 29 222.97 29.05 223.19 29.1C223.56 29.19 223.99 29.3 224.36 29.44C224.36 29.46 224.34 29.47 224.33 29.48C223.94 30.04 223.68 31.43 223.74 32.13C223.83 33.13 222.76 34.02 221.63 34.96C220.31 36.06 218.95 37.19 219.01 38.81C219.03 39.39 219.23 39.77 219.38 40.05C219.53 40.34 219.55 40.39 219.5 40.52C219.37 40.88 218.83 40.98 217.96 41.11C217 41.25 215.81 41.43 214.84 42.28C213.8 43.2 213.72 44.29 213.65 45.43C213.58 46.48 213.5 47.67 212.69 49.13C212.66 49.19 212.62 49.26 212.57 49.35C212.07 50.3 210.75 52.81 208.59 52.61C207.97 52.56 206.92 52.46 205.7 50.75C205.61 50.63 205.54 50.52 205.46 50.43C205.27 50.21 204.94 50.18 204.72 50.36C204.5 50.55 204.47 50.88 204.65 51.1C204.7 51.16 204.77 51.25 204.84 51.36C205.33 52.04 206.34 53.47 208.49 53.65C208.6 53.66 208.71 53.66 208.82 53.66C211.47 53.66 212.98 50.79 213.5 49.82C213.54 49.74 213.58 49.67 213.6 49.62C214.52 47.96 214.61 46.59 214.69 45.49C214.76 44.4 214.81 43.69 215.53 43.06C216.26 42.42 217.24 42.27 218.11 42.14C219.11 41.99 220.14 41.84 220.49 40.87C220.7 40.29 220.49 39.88 220.31 39.55C220.19 39.32 220.07 39.1 220.06 38.76C220.02 37.65 221.13 36.73 222.3 35.75C223.59 34.68 224.93 33.57 224.79 32.02C224.74 31.46 224.99 30.36 225.2 30.06C225.45 29.7 226.06 29.8 226.55 30.01C226.8 30.12 226.89 30.4 227 30.86C227.11 31.29 227.25 31.83 227.76 32.02C228.69 32.37 230.11 31.84 231.54 30.59C233.25 29.1 234.78 26.69 234.32 24.7C234.31 24.63 234.28 24.56 234.27 24.49C234.18 24.19 234.09 23.84 234.23 23.52C234.32 23.32 234.57 23.24 235.11 23.13C235.7 23 236.43 22.85 237.02 22.23C237.22 22.02 237.41 21.82 237.6 21.62C238.7 20.47 239.49 19.65 239.95 18.92C240.31 18.35 240.72 17.5 240.11 16.57L240.1 16.61Z" fill="#231F20"/>
<path d="M3.45977 22.4099H6.96977C7.97976 22.4099 8.73977 22.1799 9.22976 21.7299C9.72976 21.2699 9.97976 20.6299 9.97976 19.7999C9.97976 18.9699 9.73977 18.3199 9.24977 17.8499C8.75977 17.3799 7.99977 17.1399 6.97977 17.1399H3.46977V22.4099H3.45977ZM0.599766 31.7899C0.429766 31.7899 0.289766 31.7299 0.179766 31.6199C0.0597656 31.4999 0.00976562 31.3599 0.00976562 31.1999V14.9999C0.00976562 14.8199 0.0697656 14.6699 0.179766 14.5499C0.299766 14.4399 0.439766 14.3799 0.599766 14.3799H7.03977C9.04977 14.3799 10.6298 14.8399 11.7898 15.7699C12.9498 16.6999 13.5298 18.0499 13.5298 19.8199C13.5298 21.0499 13.2298 22.0699 12.6198 22.8799C12.0198 23.6899 11.2098 24.2799 10.1998 24.6499L13.8298 30.9899C13.8798 31.0899 13.9098 31.1799 13.9098 31.2599C13.9098 31.4099 13.8598 31.5299 13.7498 31.6299C13.6398 31.7299 13.5198 31.7799 13.3898 31.7799H11.1298C10.8498 31.7799 10.6298 31.6999 10.4798 31.5599C10.3298 31.4099 10.2198 31.2599 10.1298 31.1099L6.91977 25.2199H3.45977V31.1899C3.45977 31.3599 3.40977 31.4999 3.29977 31.6099C3.18977 31.7199 3.04977 31.7799 2.85977 31.7799H0.589766L0.599766 31.7899Z" fill="#10102A"/>
<path d="M18.5509 24.2001H24.0509V24.1301C24.0509 23.4801 23.9409 22.9101 23.7309 22.4301C23.5109 21.9401 23.2009 21.5601 22.7909 21.2901C22.3809 21.0201 21.8809 20.8801 21.3009 20.8801C20.7209 20.8801 20.2209 21.0201 19.8109 21.2901C19.4009 21.5601 19.0909 21.9401 18.8809 22.4301C18.6709 22.9201 18.5709 23.4901 18.5709 24.1301V24.2001H18.5509ZM21.2809 32.0301C19.4409 32.0301 17.9809 31.5001 16.9009 30.4401C15.8209 29.3801 15.2409 27.8701 15.1609 25.9101C15.1409 25.7501 15.1309 25.5301 15.1309 25.2801C15.1309 25.0301 15.1309 24.8201 15.1609 24.6701C15.2309 23.4101 15.5109 22.3301 16.0209 21.4301C16.5309 20.5301 17.2309 19.8301 18.1209 19.3401C19.0209 18.8501 20.0709 18.6101 21.2809 18.6101C22.6209 18.6101 23.7509 18.8901 24.6609 19.4401C25.5709 20.0001 26.2609 20.7701 26.7209 21.7501C27.1809 22.7401 27.4209 23.8801 27.4209 25.1701V25.6901C27.4209 25.8601 27.3609 26.0001 27.2509 26.1101C27.1409 26.2201 26.9909 26.2801 26.8009 26.2801H18.5409V26.4801C18.5609 27.0601 18.6709 27.6001 18.8809 28.0801C19.0909 28.5701 19.3909 28.9601 19.8009 29.2601C20.2109 29.5601 20.6909 29.7101 21.2509 29.7101C21.7109 29.7101 22.1009 29.6401 22.4209 29.5001C22.7309 29.3601 22.9909 29.2001 23.1909 29.0201C23.3909 28.8401 23.5309 28.6901 23.6109 28.5701C23.7609 28.3701 23.8809 28.2501 23.9709 28.2101C24.0609 28.1701 24.2009 28.1501 24.3809 28.1501H26.5209C26.6909 28.1501 26.8209 28.2001 26.9309 28.3001C27.0409 28.4001 27.0809 28.5201 27.0709 28.6701C27.0509 28.9401 26.9209 29.2601 26.6609 29.6401C26.4009 30.0201 26.0309 30.4001 25.5509 30.7601C25.0709 31.1301 24.4709 31.4301 23.7509 31.6701C23.0309 31.9101 22.2109 32.0301 21.2809 32.0301Z" fill="#10102A"/>
<path d="M32.9998 31.7901C32.7698 31.7901 32.5898 31.7301 32.4798 31.6201C32.3698 31.5001 32.2598 31.3501 32.1798 31.1701L28.6198 19.6301C28.5998 19.5501 28.5898 19.4701 28.5898 19.4101C28.5898 19.2601 28.6398 19.1301 28.7498 19.0201C28.8598 18.9101 28.9798 18.8601 29.1098 18.8601H30.9498C31.1498 18.8601 31.3098 18.9101 31.4198 19.0201C31.5398 19.1301 31.5998 19.2301 31.6198 19.3301L34.0598 27.5601L36.6498 19.4101C36.6798 19.2901 36.7598 19.1701 36.8698 19.0501C36.9798 18.9301 37.1598 18.8601 37.3898 18.8601H38.6298C38.8598 18.8601 39.0398 18.9201 39.1498 19.0501C39.2698 19.1701 39.3398 19.3001 39.3698 19.4101L41.9598 27.5601L44.3998 19.3301C44.4198 19.2301 44.4798 19.1301 44.5898 19.0201C44.6998 18.9101 44.8498 18.8601 45.0498 18.8601H46.8898C47.0398 18.8601 47.1698 18.9101 47.2798 19.0201C47.3898 19.1301 47.4398 19.2601 47.4398 19.4101C47.4398 19.4801 47.4198 19.5501 47.3898 19.6301L43.8298 31.1701C43.7798 31.3501 43.6898 31.5001 43.5698 31.6201C43.4498 31.7301 43.2698 31.7901 43.0398 31.7901H41.4198C41.1998 31.7901 41.0298 31.7301 40.8898 31.6201C40.7498 31.5001 40.6498 31.3501 40.5998 31.1701L38.0098 23.3101L35.4198 31.1701C35.3498 31.3501 35.2598 31.5001 35.1298 31.6201C35.0098 31.7301 34.8198 31.7901 34.5698 31.7901H32.9698H32.9998Z" fill="#10102A"/>
<path d="M50.9498 31.79C50.7798 31.79 50.6398 31.73 50.5298 31.62C50.4098 31.51 50.3598 31.36 50.3598 31.2V19.46C50.3598 19.3 50.4198 19.15 50.5298 19.04C50.6498 18.92 50.7898 18.87 50.9498 18.87H53.0098C53.1898 18.87 53.3398 18.93 53.4498 19.04C53.5598 19.16 53.6098 19.3 53.6098 19.46V31.2C53.6098 31.37 53.5598 31.51 53.4498 31.62C53.3398 31.74 53.1998 31.79 53.0098 31.79H50.9498ZM50.8498 16.72C50.6798 16.72 50.5398 16.66 50.4298 16.55C50.3098 16.43 50.2598 16.29 50.2598 16.13V14.34C50.2598 14.18 50.3198 14.04 50.4298 13.92C50.5398 13.8 50.6898 13.75 50.8498 13.75H53.1098C53.2898 13.75 53.4398 13.81 53.5598 13.92C53.6798 14.03 53.7298 14.18 53.7298 14.34V16.13C53.7298 16.3 53.6698 16.44 53.5598 16.55C53.4498 16.66 53.2998 16.72 53.1098 16.72H50.8498Z" fill="#10102A"/>
<path d="M57.5099 31.7901C57.3399 31.7901 57.1999 31.7301 57.0899 31.6201C56.9699 31.5001 56.9199 31.3601 56.9199 31.2001V19.4901C56.9199 19.3101 56.9799 19.1601 57.0899 19.0401C57.1999 18.9301 57.3499 18.8701 57.5099 18.8701H59.5199C59.6799 18.8701 59.8299 18.9301 59.9599 19.0401C60.0799 19.1601 60.1499 19.3101 60.1499 19.4901V20.5101C60.5299 19.9801 61.0199 19.5701 61.6299 19.2901C62.2399 19.0101 62.9399 18.8701 63.7299 18.8701H64.7499C64.9299 18.8701 65.0799 18.9301 65.1899 19.0401C65.2999 19.1601 65.3499 19.3001 65.3499 19.4601V21.2501C65.3499 21.4201 65.2999 21.5601 65.1899 21.6701C65.0799 21.7901 64.9399 21.8401 64.7499 21.8401H62.8099C62.0199 21.8401 61.3999 22.0601 60.9599 22.5001C60.5199 22.9401 60.2999 23.5601 60.2999 24.3501V31.1901C60.2999 31.3601 60.2399 31.5001 60.1299 31.6101C60.0199 31.7201 59.8699 31.7801 59.6799 31.7801H57.5099V31.7901Z" fill="#10102A"/>
<path d="M68.3794 31.79C68.2094 31.79 68.0694 31.73 67.9594 31.62C67.8394 31.51 67.7895 31.36 67.7895 31.2V19.46C67.7895 19.3 67.8494 19.15 67.9594 19.04C68.0794 18.92 68.2194 18.87 68.3794 18.87H70.4395C70.6195 18.87 70.7694 18.93 70.8794 19.04C70.9894 19.16 71.0395 19.3 71.0395 19.46V31.2C71.0395 31.37 70.9894 31.51 70.8794 31.62C70.7694 31.74 70.6295 31.79 70.4395 31.79H68.3794ZM68.2794 16.72C68.1094 16.72 67.9695 16.66 67.8595 16.55C67.7395 16.43 67.6895 16.29 67.6895 16.13V14.34C67.6895 14.18 67.7495 14.04 67.8595 13.92C67.9695 13.8 68.1194 13.75 68.2794 13.75H70.5395C70.7195 13.75 70.8694 13.81 70.9894 13.92C71.1094 14.03 71.1595 14.18 71.1595 14.34V16.13C71.1595 16.3 71.0994 16.44 70.9894 16.55C70.8794 16.66 70.7295 16.72 70.5395 16.72H68.2794Z" fill="#10102A"/>
<path d="M74.9396 31.7901C74.7696 31.7901 74.6296 31.7301 74.5196 31.6201C74.3996 31.5001 74.3496 31.3601 74.3496 31.2001V19.4601C74.3496 19.2901 74.4096 19.1501 74.5196 19.0401C74.6296 18.9201 74.7796 18.8701 74.9396 18.8701H76.9796C77.1496 18.8701 77.2896 18.9301 77.3996 19.0401C77.5196 19.1601 77.5696 19.3001 77.5696 19.4601V20.4801C77.9996 19.9501 78.5496 19.5101 79.2196 19.1501C79.8896 18.7901 80.7196 18.6101 81.7196 18.6101C82.7196 18.6101 83.6096 18.8401 84.3596 19.2901C85.1096 19.7501 85.6796 20.3901 86.0896 21.2201C86.4996 22.0501 86.6996 23.0401 86.6996 24.2101V31.2001C86.6996 31.3701 86.6396 31.5101 86.5296 31.6201C86.4196 31.7301 86.2696 31.7901 86.1096 31.7901H83.9196C83.7496 31.7901 83.6096 31.7301 83.4996 31.6201C83.3796 31.5101 83.3296 31.3601 83.3296 31.2001V24.3601C83.3296 23.4001 83.0896 22.6401 82.6196 22.1001C82.1496 21.5501 81.4596 21.2801 80.5696 21.2801C79.6796 21.2801 79.0196 21.5501 78.5096 22.1001C77.9996 22.6501 77.7396 23.4001 77.7396 24.3601V31.2001C77.7396 31.3701 77.6796 31.5101 77.5696 31.6201C77.4596 31.7301 77.3096 31.7901 77.1496 31.7901H74.9596H74.9396Z" fill="#10102A"/>
<path d="M95.0802 29.0799C95.7602 29.0799 96.3102 28.9299 96.7202 28.6299C97.1302 28.3299 97.4402 27.9399 97.6402 27.4599C97.8402 26.9799 97.9502 26.4899 97.9902 25.9899C98.0102 25.7699 98.0202 25.4999 98.0202 25.1699C98.0202 24.8399 98.0202 24.5699 97.9902 24.3699C97.9602 23.8599 97.8402 23.3599 97.6402 22.8899C97.4402 22.4199 97.1302 22.0299 96.7202 21.7199C96.3002 21.4099 95.7602 21.2599 95.0802 21.2599C94.4002 21.2599 93.8502 21.4099 93.4402 21.7199C93.0302 22.0299 92.7302 22.4299 92.5602 22.9299C92.3902 23.4299 92.2802 23.9799 92.2502 24.5699C92.2202 24.9699 92.2202 25.3699 92.2502 25.7899C92.2902 26.3699 92.3902 26.9099 92.5602 27.4199C92.7302 27.9299 93.0302 28.3299 93.4402 28.6299C93.8602 28.9299 94.4002 29.0799 95.0802 29.0799ZM95.2102 37.2599C94.0002 37.2599 93.0102 37.0999 92.2302 36.7899C91.4502 36.4699 90.8402 36.0899 90.3902 35.6499C89.9402 35.1999 89.6202 34.7599 89.4302 34.3199C89.2402 33.8799 89.1302 33.5399 89.1202 33.2899C89.1002 33.1199 89.1602 32.9799 89.2802 32.8499C89.4002 32.7299 89.5502 32.6599 89.7202 32.6599H91.8802C92.0402 32.6599 92.1802 32.6999 92.2802 32.7699C92.3802 32.8499 92.4602 32.9799 92.5302 33.1799C92.6302 33.3999 92.7602 33.6299 92.9302 33.8799C93.0902 34.1299 93.3502 34.3399 93.6902 34.5199C94.0302 34.6899 94.5002 34.7799 95.0902 34.7799C95.7202 34.7799 96.2502 34.6899 96.6802 34.5099C97.1102 34.3299 97.4402 34.0199 97.6602 33.5899C97.8802 33.1599 98.0002 32.5599 98.0002 31.7999V30.1099C97.6002 30.5899 97.0902 30.9799 96.4702 31.2799C95.8502 31.5799 95.0802 31.7299 94.1702 31.7299C93.2602 31.7299 92.5202 31.5799 91.8702 31.2899C91.2202 30.9999 90.6702 30.5899 90.2402 30.0699C89.8102 29.5499 89.4802 28.9299 89.2602 28.2199C89.0402 27.5099 88.9102 26.7199 88.8802 25.8599C88.8602 25.4099 88.8602 24.9599 88.8802 24.5199C88.9102 23.6899 89.0402 22.9199 89.2602 22.2099C89.4802 21.4999 89.8102 20.8699 90.2402 20.3299C90.6702 19.7899 91.2102 19.3699 91.8702 19.0799C92.5202 18.7799 93.2902 18.6299 94.1702 18.6299C95.1102 18.6299 95.9102 18.8099 96.5602 19.1599C97.2102 19.5199 97.7402 19.9599 98.1502 20.4899V19.4999C98.1502 19.3199 98.2102 19.1699 98.3202 19.0499C98.4302 18.9399 98.5802 18.8799 98.7402 18.8799H100.75C100.91 18.8799 101.06 18.9399 101.17 19.0499C101.29 19.1699 101.34 19.3199 101.34 19.4999L101.37 31.4899C101.37 32.6799 101.15 33.7099 100.7 34.5699C100.25 35.4299 99.5802 36.0999 98.6702 36.5699C97.7702 37.0399 96.6102 37.2799 95.2002 37.2799L95.2102 37.2599Z" fill="#10102A"/>
<path d="M110.129 25.82H117.739L113.939 16.02L110.129 25.82ZM106.949 31.66C106.819 31.66 106.699 31.61 106.599 31.51C106.499 31.41 106.449 31.29 106.449 31.16C106.449 31.08 106.469 30.99 106.499 30.89L112.789 14.75C112.859 14.59 112.939 14.46 113.049 14.38C113.159 14.3 113.309 14.26 113.509 14.26H114.359C114.559 14.26 114.709 14.3 114.819 14.38C114.929 14.46 115.009 14.59 115.079 14.75L121.369 30.89C121.399 30.99 121.419 31.08 121.419 31.16C121.419 31.29 121.369 31.41 121.269 31.51C121.169 31.61 121.049 31.66 120.919 31.66H120.419C120.249 31.66 120.129 31.62 120.049 31.52C119.969 31.43 119.909 31.35 119.879 31.28L118.339 27.3H109.539L107.999 31.28C107.979 31.35 107.929 31.43 107.839 31.52C107.749 31.61 107.619 31.66 107.449 31.66H106.949Z" fill="#10102A"/>
<path d="M128.3 30.47C129.46 30.47 130.41 30.1 131.13 29.35C131.86 28.6 132.25 27.53 132.3 26.12C132.32 25.87 132.33 25.56 132.33 25.2C132.33 24.84 132.33 24.53 132.3 24.28C132.25 22.86 131.86 21.77 131.13 21.04C130.4 20.3 129.46 19.93 128.3 19.93C127.14 19.93 126.19 20.3 125.47 21.04C124.74 21.78 124.35 22.86 124.3 24.28C124.28 24.53 124.27 24.84 124.27 25.2C124.27 25.56 124.27 25.87 124.3 26.12C124.35 27.53 124.74 28.61 125.47 29.35C126.2 30.1 127.14 30.47 128.3 30.47ZM128.3 31.91C127.11 31.91 126.11 31.66 125.3 31.16C124.5 30.66 123.88 29.98 123.46 29.12C123.04 28.26 122.81 27.3 122.78 26.24C122.76 25.99 122.75 25.64 122.75 25.2C122.75 24.76 122.75 24.4 122.78 24.15C122.81 23.07 123.04 22.11 123.46 21.25C123.88 20.4 124.5 19.72 125.3 19.22C126.1 18.72 127.1 18.47 128.3 18.47C129.5 18.47 130.49 18.72 131.3 19.22C132.1 19.72 132.72 20.39 133.14 21.25C133.56 22.1 133.79 23.07 133.82 24.15C133.84 24.4 133.85 24.75 133.85 25.2C133.85 25.65 133.85 25.99 133.82 26.24C133.79 27.3 133.56 28.26 133.14 29.12C132.72 29.98 132.1 30.66 131.3 31.16C130.5 31.66 129.5 31.91 128.3 31.91Z" fill="#10102A"/>
<path d="M140.96 31.66C140.1 31.66 139.42 31.48 138.92 31.11C138.42 30.74 138.07 30.25 137.88 29.62C137.68 28.99 137.58 28.29 137.58 27.51V20.18H135.64C135.47 20.18 135.34 20.13 135.24 20.03C135.14 19.93 135.09 19.8 135.09 19.63V19.28C135.09 19.12 135.14 18.98 135.24 18.88C135.34 18.78 135.47 18.73 135.64 18.73H137.58V14.55C137.58 14.39 137.63 14.25 137.73 14.15C137.83 14.05 137.96 14 138.13 14H138.55C138.71 14 138.85 14.05 138.95 14.15C139.05 14.25 139.1 14.38 139.1 14.55V18.73H142.18C142.35 18.73 142.48 18.78 142.58 18.88C142.68 18.98 142.73 19.11 142.73 19.28V19.63C142.73 19.8 142.68 19.93 142.58 20.03C142.48 20.13 142.35 20.18 142.18 20.18H139.1V27.42C139.1 28.3 139.24 28.99 139.54 29.48C139.83 29.98 140.35 30.23 141.09 30.23H142.43C142.59 30.23 142.73 30.28 142.83 30.38C142.93 30.48 142.98 30.61 142.98 30.78V31.13C142.98 31.3 142.93 31.43 142.83 31.53C142.73 31.63 142.6 31.68 142.43 31.68H140.96V31.66Z" fill="#10102A"/>
<path d="M145.909 24.43H153.819V24.33C153.819 23.5 153.659 22.76 153.349 22.09C153.039 21.43 152.579 20.9 151.979 20.51C151.379 20.12 150.669 19.93 149.839 19.93C149.009 19.93 148.299 20.13 147.709 20.51C147.119 20.9 146.669 21.43 146.369 22.09C146.059 22.75 145.909 23.5 145.909 24.33V24.43ZM149.839 31.91C148.229 31.91 146.959 31.38 146.009 30.33C145.069 29.28 144.529 27.9 144.389 26.19C144.369 25.94 144.359 25.61 144.359 25.2C144.359 24.79 144.359 24.45 144.389 24.21C144.469 23.08 144.739 22.09 145.189 21.23C145.639 20.37 146.249 19.7 147.039 19.22C147.829 18.74 148.759 18.5 149.839 18.5C150.999 18.5 151.989 18.76 152.799 19.27C153.609 19.79 154.239 20.52 154.679 21.48C155.119 22.44 155.339 23.59 155.339 24.91V25.28C155.339 25.45 155.289 25.58 155.179 25.68C155.069 25.78 154.939 25.83 154.769 25.83H145.919V26.08C145.949 26.83 146.129 27.53 146.439 28.21C146.749 28.88 147.199 29.43 147.779 29.85C148.359 30.27 149.049 30.49 149.849 30.49C150.559 30.49 151.159 30.38 151.629 30.17C152.099 29.95 152.479 29.72 152.759 29.46C153.039 29.2 153.219 29.01 153.309 28.88C153.459 28.66 153.569 28.54 153.659 28.49C153.739 28.45 153.879 28.43 154.059 28.43H154.459C154.609 28.43 154.739 28.48 154.849 28.57C154.959 28.66 154.999 28.78 154.989 28.93C154.969 29.16 154.839 29.45 154.599 29.79C154.359 30.13 154.019 30.46 153.579 30.8C153.139 31.13 152.609 31.4 151.979 31.62C151.349 31.84 150.649 31.94 149.869 31.94L149.839 31.91Z" fill="#10102A"/>
<path d="M161.85 30.47C162.61 30.47 163.31 30.31 163.94 29.97C164.57 29.64 165.07 29.13 165.45 28.44C165.82 27.75 166.01 26.89 166.01 25.84V24.99L162.8 25.44C161.44 25.62 160.41 25.94 159.72 26.39C159.03 26.84 158.68 27.4 158.68 28.08C158.68 28.63 158.84 29.07 159.15 29.42C159.46 29.77 159.87 30.03 160.36 30.2C160.85 30.37 161.35 30.46 161.86 30.46L161.85 30.47ZM161.6 31.91C160.81 31.91 160.07 31.74 159.4 31.41C158.73 31.08 158.19 30.64 157.77 30.08C157.36 29.52 157.15 28.9 157.15 28.2C157.15 27.07 157.61 26.17 158.52 25.49C159.43 24.81 160.62 24.37 162.08 24.17L166.01 23.62V22.75C166.01 21.87 165.74 21.18 165.2 20.67C164.66 20.16 163.8 19.91 162.63 19.91C161.77 19.91 161.07 20.08 160.54 20.42C160.01 20.76 159.64 21.2 159.45 21.75C159.37 22 159.21 22.12 158.98 22.12H158.58C158.38 22.12 158.24 22.07 158.16 21.96C158.08 21.85 158.04 21.72 158.04 21.57C158.04 21.34 158.13 21.05 158.3 20.7C158.47 20.35 158.74 20.01 159.11 19.67C159.48 19.33 159.95 19.04 160.53 18.81C161.11 18.58 161.81 18.46 162.64 18.46C163.62 18.46 164.43 18.59 165.06 18.86C165.7 19.13 166.2 19.47 166.55 19.89C166.91 20.31 167.16 20.78 167.31 21.29C167.46 21.8 167.53 22.31 167.53 22.81V31.09C167.53 31.26 167.48 31.39 167.38 31.49C167.28 31.59 167.15 31.64 166.98 31.64H166.56C166.39 31.64 166.26 31.59 166.16 31.49C166.06 31.39 166.01 31.26 166.01 31.09V29.92C165.81 30.22 165.53 30.52 165.17 30.82C164.81 31.12 164.34 31.37 163.77 31.58C163.2 31.79 162.48 31.89 161.62 31.89L161.6 31.91Z" fill="#10102A"/>
<path d="M171.489 31.66C171.319 31.66 171.189 31.61 171.089 31.51C170.989 31.41 170.939 31.28 170.939 31.11V19.3C170.939 19.13 170.989 19 171.089 18.89C171.189 18.78 171.319 18.73 171.489 18.73H171.889C172.049 18.73 172.189 18.78 172.299 18.89C172.409 19 172.459 19.13 172.459 19.3V20.44C172.759 19.86 173.189 19.43 173.749 19.15C174.309 18.87 175.009 18.73 175.839 18.73H176.759C176.919 18.73 177.059 18.78 177.159 18.88C177.259 18.98 177.309 19.11 177.309 19.28V19.63C177.309 19.8 177.259 19.93 177.159 20.03C177.059 20.13 176.929 20.18 176.759 20.18H175.689C174.699 20.18 173.909 20.47 173.329 21.05C172.749 21.63 172.459 22.42 172.459 23.41V31.12C172.459 31.29 172.409 31.42 172.299 31.52C172.189 31.62 172.049 31.67 171.889 31.67H171.489V31.66Z" fill="#10102A"/>
<path d="M183.729 30.47C184.889 30.47 185.839 30.1 186.559 29.35C187.289 28.6 187.679 27.53 187.729 26.12C187.749 25.87 187.759 25.56 187.759 25.2C187.759 24.84 187.759 24.53 187.729 24.28C187.679 22.86 187.289 21.77 186.559 21.04C185.829 20.3 184.889 19.93 183.729 19.93C182.569 19.93 181.619 20.3 180.899 21.04C180.169 21.78 179.779 22.86 179.729 24.28C179.709 24.53 179.699 24.84 179.699 25.2C179.699 25.56 179.699 25.87 179.729 26.12C179.779 27.53 180.169 28.61 180.899 29.35C181.629 30.1 182.569 30.47 183.729 30.47ZM183.729 31.91C182.539 31.91 181.539 31.66 180.729 31.16C179.929 30.66 179.309 29.98 178.889 29.12C178.469 28.26 178.239 27.3 178.209 26.24C178.189 25.99 178.189 25.64 178.189 25.2C178.189 24.76 178.189 24.4 178.209 24.15C178.249 23.07 178.469 22.11 178.889 21.25C179.309 20.4 179.929 19.72 180.729 19.22C181.529 18.72 182.529 18.47 183.729 18.47C184.929 18.47 185.919 18.72 186.729 19.22C187.529 19.72 188.149 20.39 188.569 21.25C188.989 22.1 189.219 23.07 189.249 24.15C189.269 24.4 189.269 24.75 189.269 25.2C189.269 25.65 189.269 25.99 189.249 26.24C189.209 27.3 188.989 28.26 188.569 29.12C188.149 29.98 187.529 30.66 186.729 31.16C185.929 31.66 184.929 31.91 183.729 31.91Z" fill="#10102A"/>
<path d="M195.911 30.47C196.671 30.47 197.371 30.31 198.001 29.97C198.631 29.64 199.131 29.13 199.511 28.44C199.881 27.75 200.071 26.89 200.071 25.84V24.99L196.861 25.44C195.501 25.62 194.471 25.94 193.781 26.39C193.091 26.84 192.741 27.4 192.741 28.08C192.741 28.63 192.901 29.07 193.211 29.42C193.521 29.77 193.931 30.03 194.421 30.2C194.911 30.37 195.411 30.46 195.921 30.46L195.911 30.47ZM195.661 31.91C194.871 31.91 194.131 31.74 193.461 31.41C192.791 31.08 192.251 30.64 191.831 30.08C191.421 29.52 191.211 28.9 191.211 28.2C191.211 27.07 191.671 26.17 192.581 25.49C193.491 24.81 194.681 24.37 196.141 24.17L200.071 23.62V22.75C200.071 21.87 199.801 21.18 199.261 20.67C198.721 20.16 197.871 19.91 196.691 19.91C195.831 19.91 195.131 20.08 194.601 20.42C194.071 20.76 193.701 21.2 193.511 21.75C193.431 22 193.271 22.12 193.041 22.12H192.641C192.441 22.12 192.301 22.07 192.221 21.96C192.141 21.85 192.101 21.72 192.101 21.57C192.101 21.34 192.191 21.05 192.361 20.7C192.531 20.35 192.801 20.01 193.171 19.67C193.541 19.33 194.011 19.04 194.591 18.81C195.171 18.58 195.871 18.46 196.701 18.46C197.681 18.46 198.491 18.59 199.121 18.86C199.761 19.13 200.261 19.47 200.611 19.89C200.971 20.31 201.221 20.78 201.371 21.29C201.521 21.8 201.591 22.31 201.591 22.81V31.09C201.591 31.26 201.541 31.39 201.441 31.49C201.341 31.59 201.211 31.64 201.041 31.64H200.621C200.451 31.64 200.321 31.59 200.221 31.49C200.121 31.39 200.071 31.26 200.071 31.09V29.92C199.871 30.22 199.591 30.52 199.231 30.82C198.861 31.12 198.401 31.37 197.831 31.58C197.261 31.79 196.541 31.89 195.681 31.89L195.661 31.91Z" fill="#10102A"/>
</g>
</svg>
