<svg width="241" height="64" viewBox="0 0 241 64" fill="none" xmlns="http://www.w3.org/2000/svg">
<path d="M236.83 27.93C236.65 28.12 236.45 28.33 236.25 28.54C235.88 28.93 235.4 29.03 234.88 29.14C234.27 29.27 233.57 29.42 233.25 30.14C232.96 30.81 233.13 31.44 233.25 31.82C233.27 31.88 233.28 31.94 233.29 31.98C233.65 33.54 232.28 35.59 230.85 36.84C229.63 37.9 228.62 38.23 228.17 38.09C228.12 38.01 228.06 37.79 228.02 37.64C227.9 37.18 227.75 36.58 227.22 36.22C227.48 36.02 227.72 35.78 227.92 35.51C228.37 34.9 228.43 34.25 228.1 33.6C227.85 33.1 227.38 32.65 226.94 32.22C226.75 32.03 226.55 31.84 226.37 31.64C225.68 30.88 225.04 30.55 224.57 30.31C224.12 30.08 223.9 29.95 223.75 29.66C223.59 29.34 224.21 28.71 224.86 28.05C225.83 27.07 227.04 25.85 227.35 24.14C227.78 21.83 226.37 19.95 224.74 17.76C223.09 15.55 221.22 13.0399 220.85 9.50995C220.83 9.30995 220.82 9.10995 220.82 8.92995C222.31 11.35 223.52 12.04 224.35 12.51C225.1 12.94 225.44 13.1299 225.67 14.3899C225.77 14.9299 225.8 15.3799 225.83 15.7999C225.91 16.8199 225.97 17.71 226.94 19.07C227.35 19.65 228.39 20.95 229.18 20.45C229.69 20.13 229.58 19.44 229.42 18.49C229.27 17.58 229.05 16.33 229.53 15.83C229.66 15.69 229.87 15.6099 229.96 15.6299C229.98 15.6599 230.08 15.7999 230.12 16.3499C230.15 16.8299 230.12 17.45 230.09 18.11C230 20.06 229.89 22.26 231.14 23.25C232 23.92 233.01 24.56 234.54 24.56C235.66 24.56 237.07 24.22 238.9 23.3C238.92 23.36 238.94 23.43 238.96 23.47C239.05 23.74 239.13 23.99 239.25 24.18C239.72 24.88 238.9 25.78 236.86 27.92L236.83 27.93ZM203.5 60.74C203.71 60.71 203.9 60.68 203.98 60.67C204.27 60.64 204.57 60.7 204.82 60.82C205.31 61.05 205.73 61.58 205.66 61.86C205.58 62.19 204.72 62.48 203.98 62.33C203.29 62.18 202.67 61.6 202.54 60.96C202.54 60.93 202.54 60.91 202.53 60.88C202.91 60.83 203.24 60.78 203.5 60.73V60.74ZM240.1 23.61C240.06 23.54 239.98 23.31 239.93 23.16C239.78 22.7 239.65 22.3 239.29 22.15C239.12 22.08 238.92 22.09 238.76 22.18C234.39 24.5 232.87 23.3 231.77 22.43C230.95 21.78 231.05 19.78 231.12 18.17C231.21 16.39 231.27 14.99 230.3 14.65C229.73 14.45 229.11 14.75 228.76 15.11C227.92 15.99 228.18 17.54 228.37 18.67C228.4 18.85 228.43 19.05 228.46 19.24C228.27 19.06 228.04 18.81 227.79 18.46C226.99 17.34 226.94 16.6899 226.87 15.7199C226.84 15.2899 226.8 14.8 226.69 14.2C226.38 12.46 225.67 12.06 224.86 11.59C223.97 11.08 222.75 10.3899 221.11 7.32995C220.94 7.01995 220.64 6.93995 220.4 7.01995C220.08 7.11995 219.9 7.43995 219.81 8.08995C219.74 8.54995 219.74 9.08995 219.79 9.60995C220.19 13.4299 222.16 16.06 223.89 18.38C225.44 20.45 226.65 22.08 226.31 23.93C226.05 25.32 225.02 26.37 224.11 27.29C223.18 28.23 222.31 29.12 222.81 30.12C223.12 30.73 223.58 30.97 224.08 31.23C224.52 31.46 225.02 31.72 225.59 32.34C225.79 32.55 226 32.76 226.2 32.96C227.23 33.96 227.47 34.34 227.07 34.88C226.57 35.55 225.71 35.96 225.29 35.72C224.72 35.4 224.01 35.23 223.44 35.08C223.23 35.03 223.03 34.98 222.89 34.93C222.07 34.67 221.59 35.47 221.27 36C221.2 36.11 221.11 36.27 221.02 36.39C220.98 36.16 220.95 35.81 220.94 35.57C220.88 34.68 220.82 33.68 220.07 33.34C219.39 33.03 218.48 33.47 217.37 34.64C215.5 36.62 214.9 38.52 214.33 40.35C213.95 41.55 213.6 42.68 212.9 43.8C211.71 45.71 210.33 46.27 208.72 46.92C206.91 47.65 204.87 48.49 202.73 51.32C201.75 52.62 200.92 54.12 200.46 55.45C199.79 57.35 200.12 58.15 200.5 58.48C200.86 58.79 201.34 58.76 201.69 58.74C201.8 58.74 201.96 58.72 202.05 58.74C202.03 58.85 201.94 59.06 201.87 59.2C201.78 59.41 201.67 59.65 201.59 59.92C198.98 60.19 195.08 60.11 194.44 56.95C194.44 56.95 194.44 56.94 194.44 56.93C196.28 56.34 197.38 53.94 196.91 53.28C196.76 53.06 196.47 53.09 195.36 53.23L195.14 51.22C195.11 50.99 194.9 50.82 194.67 50.84L194.37 50.87C194.14 50.9 193.97 51.11 193.99 51.34L194.22 53.37C193.98 53.4 193.72 53.43 193.43 53.46C193.2 53.49 192.98 53.51 192.78 53.53L192.55 51.5C192.53 51.27 192.31 51.1 192.08 51.12L191.78 51.16C191.55 51.18 191.38 51.4 191.4 51.63L191.62 53.65C190.5 53.76 190.22 53.8 190.12 54.04C189.81 54.8 191.44 56.93 193.39 57.06C193.39 57.09 193.39 57.12 193.4 57.16C193.7 58.65 194.77 60.52 198.17 60.97C199.31 61.12 200.48 61.08 201.48 60.99C201.48 61.04 201.5 61.1 201.51 61.16C201.72 62.21 202.65 63.11 203.76 63.34C203.97 63.38 204.18 63.41 204.41 63.41C204.77 63.41 205.14 63.35 205.46 63.24C206.12 63.02 206.56 62.61 206.69 62.1C206.93 61.14 206.01 60.21 205.29 59.86C204.87 59.65 204.39 59.57 203.9 59.61C203.78 59.62 203.61 59.65 203.34 59.69C203.18 59.72 202.98 59.74 202.77 59.78C202.79 59.74 202.81 59.69 202.83 59.64C203.04 59.18 203.29 58.62 202.92 58.11C202.57 57.64 202 57.67 201.62 57.7C201.48 57.7 201.26 57.72 201.19 57.7C201.13 57.62 201 57.08 201.48 55.74C201.91 54.53 202.68 53.16 203.57 51.97C205.53 49.37 207.36 48.63 209.12 47.91C210.82 47.22 212.43 46.56 213.79 44.37C214.56 43.14 214.95 41.89 215.33 40.68C215.89 38.88 216.43 37.18 218.13 35.38C219.08 34.37 219.57 34.28 219.64 34.31C219.64 34.31 219.71 34.36 219.78 34.63C219.85 34.91 219.87 35.28 219.89 35.64C219.94 36.47 220 37.33 220.68 37.55C221.43 37.79 221.88 37.04 222.17 36.55C222.28 36.37 222.48 36.03 222.6 35.95C222.77 36 222.97 36.05 223.19 36.1C223.56 36.19 223.99 36.3 224.36 36.44C224.36 36.46 224.34 36.47 224.33 36.48C223.94 37.04 223.68 38.43 223.74 39.13C223.83 40.13 222.76 41.02 221.63 41.96C220.31 43.06 218.95 44.19 219.01 45.81C219.03 46.39 219.23 46.77 219.38 47.05C219.53 47.34 219.55 47.39 219.5 47.52C219.37 47.88 218.83 47.98 217.96 48.11C217 48.25 215.81 48.43 214.84 49.28C213.8 50.2 213.72 51.29 213.65 52.43C213.58 53.48 213.5 54.67 212.69 56.13C212.66 56.19 212.62 56.26 212.57 56.35C212.07 57.3 210.75 59.81 208.59 59.61C207.97 59.56 206.92 59.46 205.7 57.75C205.61 57.63 205.54 57.52 205.46 57.43C205.27 57.21 204.94 57.18 204.72 57.36C204.5 57.55 204.47 57.88 204.65 58.1C204.7 58.16 204.77 58.25 204.84 58.36C205.33 59.04 206.34 60.47 208.49 60.65C208.6 60.66 208.71 60.66 208.82 60.66C211.47 60.66 212.98 57.79 213.5 56.82C213.54 56.74 213.58 56.67 213.6 56.62C214.52 54.96 214.61 53.59 214.69 52.49C214.76 51.4 214.81 50.69 215.53 50.06C216.26 49.42 217.24 49.27 218.11 49.14C219.11 48.99 220.14 48.84 220.49 47.87C220.7 47.29 220.49 46.88 220.31 46.55C220.19 46.32 220.07 46.1 220.06 45.76C220.02 44.65 221.13 43.73 222.3 42.75C223.59 41.68 224.93 40.57 224.79 39.02C224.74 38.46 224.99 37.36 225.2 37.06C225.45 36.7 226.06 36.8 226.55 37.01C226.8 37.12 226.89 37.4 227 37.86C227.11 38.29 227.25 38.83 227.76 39.02C228.69 39.37 230.11 38.84 231.54 37.59C233.25 36.1 234.78 33.69 234.32 31.7C234.31 31.63 234.28 31.56 234.27 31.49C234.18 31.19 234.09 30.84 234.23 30.52C234.32 30.32 234.57 30.24 235.11 30.13C235.7 30 236.43 29.85 237.02 29.23C237.22 29.02 237.41 28.82 237.6 28.62C238.7 27.47 239.49 26.65 239.95 25.92C240.31 25.35 240.72 24.5 240.11 23.57L240.1 23.61Z" fill="#231F20"/>
<path d="M3.45977 29.4099H6.96977C7.97976 29.4099 8.73977 29.1799 9.22976 28.7299C9.72976 28.2699 9.97976 27.6299 9.97976 26.7999C9.97976 25.9699 9.73977 25.3199 9.24977 24.8499C8.75977 24.3799 7.99977 24.1399 6.97977 24.1399H3.46977V29.4099H3.45977ZM0.599766 38.7899C0.429766 38.7899 0.289766 38.7299 0.179766 38.6199C0.0597656 38.4999 0.00976562 38.3599 0.00976562 38.1999V21.9999C0.00976562 21.8199 0.0697656 21.6699 0.179766 21.5499C0.299766 21.4399 0.439766 21.3799 0.599766 21.3799H7.03977C9.04977 21.3799 10.6298 21.8399 11.7898 22.7699C12.9498 23.6999 13.5298 25.0499 13.5298 26.8199C13.5298 28.0499 13.2298 29.0699 12.6198 29.8799C12.0198 30.6899 11.2098 31.2799 10.1998 31.6499L13.8298 37.9899C13.8798 38.0899 13.9098 38.1799 13.9098 38.2599C13.9098 38.4099 13.8598 38.5299 13.7498 38.6299C13.6398 38.7299 13.5198 38.7799 13.3898 38.7799H11.1298C10.8498 38.7799 10.6298 38.6999 10.4798 38.5599C10.3298 38.4099 10.2198 38.2599 10.1298 38.1099L6.91977 32.2199H3.45977V38.1899C3.45977 38.3599 3.40977 38.4999 3.29977 38.6099C3.18977 38.7199 3.04977 38.7799 2.85977 38.7799H0.589766L0.599766 38.7899Z" fill="#10102A"/>
<path d="M18.5509 31.2001H24.0509V31.1301C24.0509 30.4801 23.9409 29.9101 23.7309 29.4301C23.5109 28.9401 23.2009 28.5601 22.7909 28.2901C22.3809 28.0201 21.8809 27.8801 21.3009 27.8801C20.7209 27.8801 20.2209 28.0201 19.8109 28.2901C19.4009 28.5601 19.0909 28.9401 18.8809 29.4301C18.6709 29.9201 18.5709 30.4901 18.5709 31.1301V31.2001H18.5509ZM21.2809 39.0301C19.4409 39.0301 17.9809 38.5001 16.9009 37.4401C15.8209 36.3801 15.2409 34.8701 15.1609 32.9101C15.1409 32.7501 15.1309 32.5301 15.1309 32.2801C15.1309 32.0301 15.1309 31.8201 15.1609 31.6701C15.2309 30.4101 15.5109 29.3301 16.0209 28.4301C16.5309 27.5301 17.2309 26.8301 18.1209 26.3401C19.0209 25.8501 20.0709 25.6101 21.2809 25.6101C22.6209 25.6101 23.7509 25.8901 24.6609 26.4401C25.5709 27.0001 26.2609 27.7701 26.7209 28.7501C27.1809 29.7401 27.4209 30.8801 27.4209 32.1701V32.6901C27.4209 32.8601 27.3609 33.0001 27.2509 33.1101C27.1409 33.2201 26.9909 33.2801 26.8009 33.2801H18.5409V33.4801C18.5609 34.0601 18.6709 34.6001 18.8809 35.0801C19.0909 35.5701 19.3909 35.9601 19.8009 36.2601C20.2109 36.5601 20.6909 36.7101 21.2509 36.7101C21.7109 36.7101 22.1009 36.6401 22.4209 36.5001C22.7309 36.3601 22.9909 36.2001 23.1909 36.0201C23.3909 35.8401 23.5309 35.6901 23.6109 35.5701C23.7609 35.3701 23.8809 35.2501 23.9709 35.2101C24.0609 35.1701 24.2009 35.1501 24.3809 35.1501H26.5209C26.6909 35.1501 26.8209 35.2001 26.9309 35.3001C27.0409 35.4001 27.0809 35.5201 27.0709 35.6701C27.0509 35.9401 26.9209 36.2601 26.6609 36.6401C26.4009 37.0201 26.0309 37.4001 25.5509 37.7601C25.0709 38.1301 24.4709 38.4301 23.7509 38.6701C23.0309 38.9101 22.2109 39.0301 21.2809 39.0301Z" fill="#10102A"/>
<path d="M32.9998 38.7901C32.7698 38.7901 32.5898 38.7301 32.4798 38.6201C32.3698 38.5001 32.2598 38.3501 32.1798 38.1701L28.6198 26.6301C28.5998 26.5501 28.5898 26.4701 28.5898 26.4101C28.5898 26.2601 28.6398 26.1301 28.7498 26.0201C28.8598 25.9101 28.9798 25.8601 29.1098 25.8601H30.9498C31.1498 25.8601 31.3098 25.9101 31.4198 26.0201C31.5398 26.1301 31.5998 26.2301 31.6198 26.3301L34.0598 34.5601L36.6498 26.4101C36.6798 26.2901 36.7598 26.1701 36.8698 26.0501C36.9798 25.9301 37.1598 25.8601 37.3898 25.8601H38.6298C38.8598 25.8601 39.0398 25.9201 39.1498 26.0501C39.2698 26.1701 39.3398 26.3001 39.3698 26.4101L41.9598 34.5601L44.3998 26.3301C44.4198 26.2301 44.4798 26.1301 44.5898 26.0201C44.6998 25.9101 44.8498 25.8601 45.0498 25.8601H46.8898C47.0398 25.8601 47.1698 25.9101 47.2798 26.0201C47.3898 26.1301 47.4398 26.2601 47.4398 26.4101C47.4398 26.4801 47.4198 26.5501 47.3898 26.6301L43.8298 38.1701C43.7798 38.3501 43.6898 38.5001 43.5698 38.6201C43.4498 38.7301 43.2698 38.7901 43.0398 38.7901H41.4198C41.1998 38.7901 41.0298 38.7301 40.8898 38.6201C40.7498 38.5001 40.6498 38.3501 40.5998 38.1701L38.0098 30.3101L35.4198 38.1701C35.3498 38.3501 35.2598 38.5001 35.1298 38.6201C35.0098 38.7301 34.8198 38.7901 34.5698 38.7901H32.9698H32.9998Z" fill="#10102A"/>
<path d="M50.9498 38.79C50.7798 38.79 50.6398 38.73 50.5298 38.62C50.4098 38.51 50.3598 38.36 50.3598 38.2V26.46C50.3598 26.3 50.4198 26.15 50.5298 26.04C50.6498 25.92 50.7898 25.87 50.9498 25.87H53.0098C53.1898 25.87 53.3398 25.93 53.4498 26.04C53.5598 26.16 53.6098 26.3 53.6098 26.46V38.2C53.6098 38.37 53.5598 38.51 53.4498 38.62C53.3398 38.74 53.1998 38.79 53.0098 38.79H50.9498ZM50.8498 23.72C50.6798 23.72 50.5398 23.66 50.4298 23.55C50.3098 23.43 50.2598 23.29 50.2598 23.13V21.34C50.2598 21.18 50.3198 21.04 50.4298 20.92C50.5398 20.8 50.6898 20.75 50.8498 20.75H53.1098C53.2898 20.75 53.4398 20.81 53.5598 20.92C53.6798 21.03 53.7298 21.18 53.7298 21.34V23.13C53.7298 23.3 53.6698 23.44 53.5598 23.55C53.4498 23.66 53.2998 23.72 53.1098 23.72H50.8498Z" fill="#10102A"/>
<path d="M57.5099 38.7901C57.3399 38.7901 57.1999 38.7301 57.0899 38.6201C56.9699 38.5001 56.9199 38.3601 56.9199 38.2001V26.4901C56.9199 26.3101 56.9799 26.1601 57.0899 26.0401C57.1999 25.9301 57.3499 25.8701 57.5099 25.8701H59.5199C59.6799 25.8701 59.8299 25.9301 59.9599 26.0401C60.0799 26.1601 60.1499 26.3101 60.1499 26.4901V27.5101C60.5299 26.9801 61.0199 26.5701 61.6299 26.2901C62.2399 26.0101 62.9399 25.8701 63.7299 25.8701H64.7499C64.9299 25.8701 65.0799 25.9301 65.1899 26.0401C65.2999 26.1601 65.3499 26.3001 65.3499 26.4601V28.2501C65.3499 28.4201 65.2999 28.5601 65.1899 28.6701C65.0799 28.7901 64.9399 28.8401 64.7499 28.8401H62.8099C62.0199 28.8401 61.3999 29.0601 60.9599 29.5001C60.5199 29.9401 60.2999 30.5601 60.2999 31.3501V38.1901C60.2999 38.3601 60.2399 38.5001 60.1299 38.6101C60.0199 38.7201 59.8699 38.7801 59.6799 38.7801H57.5099V38.7901Z" fill="#10102A"/>
<path d="M68.3794 38.79C68.2094 38.79 68.0694 38.73 67.9594 38.62C67.8394 38.51 67.7895 38.36 67.7895 38.2V26.46C67.7895 26.3 67.8494 26.15 67.9594 26.04C68.0794 25.92 68.2194 25.87 68.3794 25.87H70.4395C70.6195 25.87 70.7694 25.93 70.8794 26.04C70.9894 26.16 71.0395 26.3 71.0395 26.46V38.2C71.0395 38.37 70.9894 38.51 70.8794 38.62C70.7694 38.74 70.6295 38.79 70.4395 38.79H68.3794ZM68.2794 23.72C68.1094 23.72 67.9695 23.66 67.8595 23.55C67.7395 23.43 67.6895 23.29 67.6895 23.13V21.34C67.6895 21.18 67.7495 21.04 67.8595 20.92C67.9695 20.8 68.1194 20.75 68.2794 20.75H70.5395C70.7195 20.75 70.8694 20.81 70.9894 20.92C71.1094 21.03 71.1595 21.18 71.1595 21.34V23.13C71.1595 23.3 71.0994 23.44 70.9894 23.55C70.8794 23.66 70.7295 23.72 70.5395 23.72H68.2794Z" fill="#10102A"/>
<path d="M74.9396 38.7901C74.7696 38.7901 74.6296 38.7301 74.5196 38.6201C74.3996 38.5001 74.3496 38.3601 74.3496 38.2001V26.4601C74.3496 26.2901 74.4096 26.1501 74.5196 26.0401C74.6296 25.9201 74.7796 25.8701 74.9396 25.8701H76.9796C77.1496 25.8701 77.2896 25.9301 77.3996 26.0401C77.5196 26.1601 77.5696 26.3001 77.5696 26.4601V27.4801C77.9996 26.9501 78.5496 26.5101 79.2196 26.1501C79.8896 25.7901 80.7196 25.6101 81.7196 25.6101C82.7196 25.6101 83.6096 25.8401 84.3596 26.2901C85.1096 26.7501 85.6796 27.3901 86.0896 28.2201C86.4996 29.0501 86.6996 30.0401 86.6996 31.2101V38.2001C86.6996 38.3701 86.6396 38.5101 86.5296 38.6201C86.4196 38.7301 86.2696 38.7901 86.1096 38.7901H83.9196C83.7496 38.7901 83.6096 38.7301 83.4996 38.6201C83.3796 38.5101 83.3296 38.3601 83.3296 38.2001V31.3601C83.3296 30.4001 83.0896 29.6401 82.6196 29.1001C82.1496 28.5501 81.4596 28.2801 80.5696 28.2801C79.6796 28.2801 79.0196 28.5501 78.5096 29.1001C77.9996 29.6501 77.7396 30.4001 77.7396 31.3601V38.2001C77.7396 38.3701 77.6796 38.5101 77.5696 38.6201C77.4596 38.7301 77.3096 38.7901 77.1496 38.7901H74.9596H74.9396Z" fill="#10102A"/>
<path d="M95.0802 36.0799C95.7602 36.0799 96.3102 35.9299 96.7202 35.6299C97.1302 35.3299 97.4402 34.9399 97.6402 34.4599C97.8402 33.9799 97.9502 33.4899 97.9902 32.9899C98.0102 32.7699 98.0202 32.4999 98.0202 32.1699C98.0202 31.8399 98.0202 31.5699 97.9902 31.3699C97.9602 30.8599 97.8402 30.3599 97.6402 29.8899C97.4402 29.4199 97.1302 29.0299 96.7202 28.7199C96.3002 28.4099 95.7602 28.2599 95.0802 28.2599C94.4002 28.2599 93.8502 28.4099 93.4402 28.7199C93.0302 29.0299 92.7302 29.4299 92.5602 29.9299C92.3902 30.4299 92.2802 30.9799 92.2502 31.5699C92.2202 31.9699 92.2202 32.3699 92.2502 32.7899C92.2902 33.3699 92.3902 33.9099 92.5602 34.4199C92.7302 34.9299 93.0302 35.3299 93.4402 35.6299C93.8602 35.9299 94.4002 36.0799 95.0802 36.0799ZM95.2102 44.2599C94.0002 44.2599 93.0102 44.0999 92.2302 43.7899C91.4502 43.4699 90.8402 43.0899 90.3902 42.6499C89.9402 42.1999 89.6202 41.7599 89.4302 41.3199C89.2402 40.8799 89.1302 40.5399 89.1202 40.2899C89.1002 40.1199 89.1602 39.9799 89.2802 39.8499C89.4002 39.7299 89.5502 39.6599 89.7202 39.6599H91.8802C92.0402 39.6599 92.1802 39.6999 92.2802 39.7699C92.3802 39.8499 92.4602 39.9799 92.5302 40.1799C92.6302 40.3999 92.7602 40.6299 92.9302 40.8799C93.0902 41.1299 93.3502 41.3399 93.6902 41.5199C94.0302 41.6899 94.5002 41.7799 95.0902 41.7799C95.7202 41.7799 96.2502 41.6899 96.6802 41.5099C97.1102 41.3299 97.4402 41.0199 97.6602 40.5899C97.8802 40.1599 98.0002 39.5599 98.0002 38.7999V37.1099C97.6002 37.5899 97.0902 37.9799 96.4702 38.2799C95.8502 38.5799 95.0802 38.7299 94.1702 38.7299C93.2602 38.7299 92.5202 38.5799 91.8702 38.2899C91.2202 37.9999 90.6702 37.5899 90.2402 37.0699C89.8102 36.5499 89.4802 35.9299 89.2602 35.2199C89.0402 34.5099 88.9102 33.7199 88.8802 32.8599C88.8602 32.4099 88.8602 31.9599 88.8802 31.5199C88.9102 30.6899 89.0402 29.9199 89.2602 29.2099C89.4802 28.4999 89.8102 27.8699 90.2402 27.3299C90.6702 26.7899 91.2102 26.3699 91.8702 26.0799C92.5202 25.7799 93.2902 25.6299 94.1702 25.6299C95.1102 25.6299 95.9102 25.8099 96.5602 26.1599C97.2102 26.5199 97.7402 26.9599 98.1502 27.4899V26.4999C98.1502 26.3199 98.2102 26.1699 98.3202 26.0499C98.4302 25.9399 98.5802 25.8799 98.7402 25.8799H100.75C100.91 25.8799 101.06 25.9399 101.17 26.0499C101.29 26.1699 101.34 26.3199 101.34 26.4999L101.37 38.4899C101.37 39.6799 101.15 40.7099 100.7 41.5699C100.25 42.4299 99.5802 43.0999 98.6702 43.5699C97.7702 44.0399 96.6102 44.2799 95.2002 44.2799L95.2102 44.2599Z" fill="#10102A"/>
<path d="M110.129 32.82H117.739L113.939 23.02L110.129 32.82ZM106.949 38.66C106.819 38.66 106.699 38.61 106.599 38.51C106.499 38.41 106.449 38.29 106.449 38.16C106.449 38.08 106.469 37.99 106.499 37.89L112.789 21.75C112.859 21.59 112.939 21.46 113.049 21.38C113.159 21.3 113.309 21.26 113.509 21.26H114.359C114.559 21.26 114.709 21.3 114.819 21.38C114.929 21.46 115.009 21.59 115.079 21.75L121.369 37.89C121.399 37.99 121.419 38.08 121.419 38.16C121.419 38.29 121.369 38.41 121.269 38.51C121.169 38.61 121.049 38.66 120.919 38.66H120.419C120.249 38.66 120.129 38.62 120.049 38.52C119.969 38.43 119.909 38.35 119.879 38.28L118.339 34.3H109.539L107.999 38.28C107.979 38.35 107.929 38.43 107.839 38.52C107.749 38.61 107.619 38.66 107.449 38.66H106.949Z" fill="#10102A"/>
<path d="M128.3 37.47C129.46 37.47 130.41 37.1 131.13 36.35C131.86 35.6 132.25 34.53 132.3 33.12C132.32 32.87 132.33 32.56 132.33 32.2C132.33 31.84 132.33 31.53 132.3 31.28C132.25 29.86 131.86 28.77 131.13 28.04C130.4 27.3 129.46 26.93 128.3 26.93C127.14 26.93 126.19 27.3 125.47 28.04C124.74 28.78 124.35 29.86 124.3 31.28C124.28 31.53 124.27 31.84 124.27 32.2C124.27 32.56 124.27 32.87 124.3 33.12C124.35 34.53 124.74 35.61 125.47 36.35C126.2 37.1 127.14 37.47 128.3 37.47ZM128.3 38.91C127.11 38.91 126.11 38.66 125.3 38.16C124.5 37.66 123.88 36.98 123.46 36.12C123.04 35.26 122.81 34.3 122.78 33.24C122.76 32.99 122.75 32.64 122.75 32.2C122.75 31.76 122.75 31.4 122.78 31.15C122.81 30.07 123.04 29.11 123.46 28.25C123.88 27.4 124.5 26.72 125.3 26.22C126.1 25.72 127.1 25.47 128.3 25.47C129.5 25.47 130.49 25.72 131.3 26.22C132.1 26.72 132.72 27.39 133.14 28.25C133.56 29.1 133.79 30.07 133.82 31.15C133.84 31.4 133.85 31.75 133.85 32.2C133.85 32.65 133.85 32.99 133.82 33.24C133.79 34.3 133.56 35.26 133.14 36.12C132.72 36.98 132.1 37.66 131.3 38.16C130.5 38.66 129.5 38.91 128.3 38.91Z" fill="#10102A"/>
<path d="M140.96 38.66C140.1 38.66 139.42 38.48 138.92 38.11C138.42 37.74 138.07 37.25 137.88 36.62C137.68 35.99 137.58 35.29 137.58 34.51V27.18H135.64C135.47 27.18 135.34 27.13 135.24 27.03C135.14 26.93 135.09 26.8 135.09 26.63V26.28C135.09 26.12 135.14 25.98 135.24 25.88C135.34 25.78 135.47 25.73 135.64 25.73H137.58V21.55C137.58 21.39 137.63 21.25 137.73 21.15C137.83 21.05 137.96 21 138.13 21H138.55C138.71 21 138.85 21.05 138.95 21.15C139.05 21.25 139.1 21.38 139.1 21.55V25.73H142.18C142.35 25.73 142.48 25.78 142.58 25.88C142.68 25.98 142.73 26.11 142.73 26.28V26.63C142.73 26.8 142.68 26.93 142.58 27.03C142.48 27.13 142.35 27.18 142.18 27.18H139.1V34.42C139.1 35.3 139.24 35.99 139.54 36.48C139.83 36.98 140.35 37.23 141.09 37.23H142.43C142.59 37.23 142.73 37.28 142.83 37.38C142.93 37.48 142.98 37.61 142.98 37.78V38.13C142.98 38.3 142.93 38.43 142.83 38.53C142.73 38.63 142.6 38.68 142.43 38.68H140.96V38.66Z" fill="#10102A"/>
<path d="M145.909 31.43H153.819V31.33C153.819 30.5 153.659 29.76 153.349 29.09C153.039 28.43 152.579 27.9 151.979 27.51C151.379 27.12 150.669 26.93 149.839 26.93C149.009 26.93 148.299 27.13 147.709 27.51C147.119 27.9 146.669 28.43 146.369 29.09C146.059 29.75 145.909 30.5 145.909 31.33V31.43ZM149.839 38.91C148.229 38.91 146.959 38.38 146.009 37.33C145.069 36.28 144.529 34.9 144.389 33.19C144.369 32.94 144.359 32.61 144.359 32.2C144.359 31.79 144.359 31.45 144.389 31.21C144.469 30.08 144.739 29.09 145.189 28.23C145.639 27.37 146.249 26.7 147.039 26.22C147.829 25.74 148.759 25.5 149.839 25.5C150.999 25.5 151.989 25.76 152.799 26.27C153.609 26.79 154.239 27.52 154.679 28.48C155.119 29.44 155.339 30.59 155.339 31.91V32.28C155.339 32.45 155.289 32.58 155.179 32.68C155.069 32.78 154.939 32.83 154.769 32.83H145.919V33.08C145.949 33.83 146.129 34.53 146.439 35.21C146.749 35.88 147.199 36.43 147.779 36.85C148.359 37.27 149.049 37.49 149.849 37.49C150.559 37.49 151.159 37.38 151.629 37.17C152.099 36.95 152.479 36.72 152.759 36.46C153.039 36.2 153.219 36.01 153.309 35.88C153.459 35.66 153.569 35.54 153.659 35.49C153.739 35.45 153.879 35.43 154.059 35.43H154.459C154.609 35.43 154.739 35.48 154.849 35.57C154.959 35.66 154.999 35.78 154.989 35.93C154.969 36.16 154.839 36.45 154.599 36.79C154.359 37.13 154.019 37.46 153.579 37.8C153.139 38.13 152.609 38.4 151.979 38.62C151.349 38.84 150.649 38.94 149.869 38.94L149.839 38.91Z" fill="#10102A"/>
<path d="M161.85 37.47C162.61 37.47 163.31 37.31 163.94 36.97C164.57 36.64 165.07 36.13 165.45 35.44C165.82 34.75 166.01 33.89 166.01 32.84V31.99L162.8 32.44C161.44 32.62 160.41 32.94 159.72 33.39C159.03 33.84 158.68 34.4 158.68 35.08C158.68 35.63 158.84 36.07 159.15 36.42C159.46 36.77 159.87 37.03 160.36 37.2C160.85 37.37 161.35 37.46 161.86 37.46L161.85 37.47ZM161.6 38.91C160.81 38.91 160.07 38.74 159.4 38.41C158.73 38.08 158.19 37.64 157.77 37.08C157.36 36.52 157.15 35.9 157.15 35.2C157.15 34.07 157.61 33.17 158.52 32.49C159.43 31.81 160.62 31.37 162.08 31.17L166.01 30.62V29.75C166.01 28.87 165.74 28.18 165.2 27.67C164.66 27.16 163.8 26.91 162.63 26.91C161.77 26.91 161.07 27.08 160.54 27.42C160.01 27.76 159.64 28.2 159.45 28.75C159.37 29 159.21 29.12 158.98 29.12H158.58C158.38 29.12 158.24 29.07 158.16 28.96C158.08 28.85 158.04 28.72 158.04 28.57C158.04 28.34 158.13 28.05 158.3 27.7C158.47 27.35 158.74 27.01 159.11 26.67C159.48 26.33 159.95 26.04 160.53 25.81C161.11 25.58 161.81 25.46 162.64 25.46C163.62 25.46 164.43 25.59 165.06 25.86C165.7 26.13 166.2 26.47 166.55 26.89C166.91 27.31 167.16 27.78 167.31 28.29C167.46 28.8 167.53 29.31 167.53 29.81V38.09C167.53 38.26 167.48 38.39 167.38 38.49C167.28 38.59 167.15 38.64 166.98 38.64H166.56C166.39 38.64 166.26 38.59 166.16 38.49C166.06 38.39 166.01 38.26 166.01 38.09V36.92C165.81 37.22 165.53 37.52 165.17 37.82C164.81 38.12 164.34 38.37 163.77 38.58C163.2 38.79 162.48 38.89 161.62 38.89L161.6 38.91Z" fill="#10102A"/>
<path d="M171.489 38.66C171.319 38.66 171.189 38.61 171.089 38.51C170.989 38.41 170.939 38.28 170.939 38.11V26.3C170.939 26.13 170.989 26 171.089 25.89C171.189 25.78 171.319 25.73 171.489 25.73H171.889C172.049 25.73 172.189 25.78 172.299 25.89C172.409 26 172.459 26.13 172.459 26.3V27.44C172.759 26.86 173.189 26.43 173.749 26.15C174.309 25.87 175.009 25.73 175.839 25.73H176.759C176.919 25.73 177.059 25.78 177.159 25.88C177.259 25.98 177.309 26.11 177.309 26.28V26.63C177.309 26.8 177.259 26.93 177.159 27.03C177.059 27.13 176.929 27.18 176.759 27.18H175.689C174.699 27.18 173.909 27.47 173.329 28.05C172.749 28.63 172.459 29.42 172.459 30.41V38.12C172.459 38.29 172.409 38.42 172.299 38.52C172.189 38.62 172.049 38.67 171.889 38.67H171.489V38.66Z" fill="#10102A"/>
<path d="M183.729 37.47C184.889 37.47 185.839 37.1 186.559 36.35C187.289 35.6 187.679 34.53 187.729 33.12C187.749 32.87 187.759 32.56 187.759 32.2C187.759 31.84 187.759 31.53 187.729 31.28C187.679 29.86 187.289 28.77 186.559 28.04C185.829 27.3 184.889 26.93 183.729 26.93C182.569 26.93 181.619 27.3 180.899 28.04C180.169 28.78 179.779 29.86 179.729 31.28C179.709 31.53 179.699 31.84 179.699 32.2C179.699 32.56 179.699 32.87 179.729 33.12C179.779 34.53 180.169 35.61 180.899 36.35C181.629 37.1 182.569 37.47 183.729 37.47ZM183.729 38.91C182.539 38.91 181.539 38.66 180.729 38.16C179.929 37.66 179.309 36.98 178.889 36.12C178.469 35.26 178.239 34.3 178.209 33.24C178.189 32.99 178.189 32.64 178.189 32.2C178.189 31.76 178.189 31.4 178.209 31.15C178.249 30.07 178.469 29.11 178.889 28.25C179.309 27.4 179.929 26.72 180.729 26.22C181.529 25.72 182.529 25.47 183.729 25.47C184.929 25.47 185.919 25.72 186.729 26.22C187.529 26.72 188.149 27.39 188.569 28.25C188.989 29.1 189.219 30.07 189.249 31.15C189.269 31.4 189.269 31.75 189.269 32.2C189.269 32.65 189.269 32.99 189.249 33.24C189.209 34.3 188.989 35.26 188.569 36.12C188.149 36.98 187.529 37.66 186.729 38.16C185.929 38.66 184.929 38.91 183.729 38.91Z" fill="#10102A"/>
<path d="M195.911 37.47C196.671 37.47 197.371 37.31 198.001 36.97C198.631 36.64 199.131 36.13 199.511 35.44C199.881 34.75 200.071 33.89 200.071 32.84V31.99L196.861 32.44C195.501 32.62 194.471 32.94 193.781 33.39C193.091 33.84 192.741 34.4 192.741 35.08C192.741 35.63 192.901 36.07 193.211 36.42C193.521 36.77 193.931 37.03 194.421 37.2C194.911 37.37 195.411 37.46 195.921 37.46L195.911 37.47ZM195.661 38.91C194.871 38.91 194.131 38.74 193.461 38.41C192.791 38.08 192.251 37.64 191.831 37.08C191.421 36.52 191.211 35.9 191.211 35.2C191.211 34.07 191.671 33.17 192.581 32.49C193.491 31.81 194.681 31.37 196.141 31.17L200.071 30.62V29.75C200.071 28.87 199.801 28.18 199.261 27.67C198.721 27.16 197.871 26.91 196.691 26.91C195.831 26.91 195.131 27.08 194.601 27.42C194.071 27.76 193.701 28.2 193.511 28.75C193.431 29 193.271 29.12 193.041 29.12H192.641C192.441 29.12 192.301 29.07 192.221 28.96C192.141 28.85 192.101 28.72 192.101 28.57C192.101 28.34 192.191 28.05 192.361 27.7C192.531 27.35 192.801 27.01 193.171 26.67C193.541 26.33 194.011 26.04 194.591 25.81C195.171 25.58 195.871 25.46 196.701 25.46C197.681 25.46 198.491 25.59 199.121 25.86C199.761 26.13 200.261 26.47 200.611 26.89C200.971 27.31 201.221 27.78 201.371 28.29C201.521 28.8 201.591 29.31 201.591 29.81V38.09C201.591 38.26 201.541 38.39 201.441 38.49C201.341 38.59 201.211 38.64 201.041 38.64H200.621C200.451 38.64 200.321 38.59 200.221 38.49C200.121 38.39 200.071 38.26 200.071 38.09V36.92C199.871 37.22 199.591 37.52 199.231 37.82C198.861 38.12 198.401 38.37 197.831 38.58C197.261 38.79 196.541 38.89 195.681 38.89L195.661 38.91Z" fill="#10102A"/>
</svg>
